<?xml version="1.0" standalone="no"?>
<!DOCTYPE svg PUBLIC "-//W3C//DTD SVG 20010904//EN"
 "http://www.w3.org/TR/2001/REC-SVG-20010904/DTD/svg10.dtd">
<svg version="1.0" xmlns="http://www.w3.org/2000/svg"
 width="1472.000000pt" height="1472.000000pt" viewBox="0 0 1472.000000 1472.000000"
 preserveAspectRatio="xMidYMid meet">
<metadata>
Created by potrace 1.14, written by Peter Selinger 2001-2017
</metadata>
<g transform="translate(0.000000,1472.000000) scale(0.100000,-0.100000)"
fill="#000000" stroke="none">
<path d="M4410 10543 c0 -7 -9 -13 -20 -13 -11 0 -20 -4 -20 -9 0 -4 -12 -6
-26 -3 -19 3 -25 1 -20 -7 5 -7 0 -11 -13 -11 -12 0 -21 -5 -21 -11 0 -5 -3
-8 -7 -6 -10 6 -34 -19 -26 -27 4 -3 -1 -6 -10 -6 -9 0 -17 -7 -17 -16 0 -8
-4 -12 -10 -9 -5 3 -10 2 -10 -2 0 -8 -38 -55 -107 -131 -18 -20 -33 -40 -33
-45 0 -4 -4 -6 -9 -3 -5 3 -11 -4 -14 -15 -3 -12 -10 -18 -17 -14 -6 4 -9 1
-8 -7 2 -7 -3 -12 -10 -10 -8 1 -11 -2 -8 -7 4 -5 -11 -28 -33 -50 -22 -23
-37 -41 -33 -41 4 0 -1 -5 -11 -11 -9 -6 -15 -14 -12 -20 4 -5 1 -9 -6 -9 -13
0 -49 -38 -49 -52 0 -5 -4 -7 -9 -3 -5 3 -12 1 -16 -5 -3 -5 0 -10 7 -10 7 0
4 -6 -7 -12 -24 -14 -49 -38 -40 -38 4 0 -8 -14 -26 -32 -19 -17 -33 -35 -31
-41 2 -5 -4 -7 -11 -4 -11 4 -13 0 -10 -14 4 -15 2 -18 -12 -12 -12 4 -16 3
-11 -5 3 -6 -3 -16 -15 -22 -11 -7 -18 -14 -15 -17 3 -3 -7 -17 -22 -31 -15
-14 -26 -30 -25 -34 3 -8 -12 -12 -30 -9 -5 1 -6 -3 -2 -9 3 -5 -10 -26 -29
-45 -20 -19 -33 -35 -30 -35 3 0 -6 -11 -20 -24 -15 -13 -26 -29 -26 -35 0 -7
-3 -10 -7 -8 -5 3 -14 -1 -21 -9 -7 -8 -9 -14 -5 -14 4 0 0 -5 -10 -11 -9 -6
-14 -15 -11 -21 4 -6 3 -8 -3 -5 -5 3 -18 -6 -29 -21 -10 -14 -27 -33 -36 -41
-10 -9 -18 -21 -18 -29 0 -7 -4 -10 -10 -7 -5 3 -10 2 -10 -4 0 -5 -20 -30
-45 -54 -25 -25 -45 -53 -45 -62 0 -9 -4 -14 -8 -11 -8 5 -42 -28 -42 -40 0
-3 -20 -25 -45 -50 -25 -24 -42 -44 -38 -44 5 0 0 -5 -10 -11 -9 -6 -15 -14
-12 -20 4 -5 -1 -9 -9 -9 -9 0 -16 -4 -16 -8 0 -8 -71 -91 -123 -144 -15 -15
-25 -28 -23 -28 3 0 -15 -20 -39 -45 -25 -25 -45 -47 -46 -49 0 -7 -58 -74
-87 -102 -13 -13 -21 -28 -17 -34 3 -6 3 -10 -2 -9 -20 4 -33 -2 -33 -15 0 -8
-3 -16 -7 -18 -5 -1 -22 -20 -40 -40 -17 -20 -34 -34 -37 -31 -3 4 -6 -3 -6
-14 0 -13 -8 -23 -22 -26 -12 -4 -19 -9 -16 -12 3 -3 -12 -25 -33 -48 -22 -22
-39 -45 -39 -49 0 -4 -8 -8 -17 -8 -14 0 -15 -2 -5 -9 10 -6 9 -10 -7 -14 -12
-3 -19 -1 -15 4 5 8 -10 13 -29 10 -5 -1 -6 3 -2 9 3 5 1 10 -4 10 -6 0 -11 7
-11 15 0 8 -5 15 -10 15 -6 0 -16 11 -22 25 -6 14 -17 25 -23 25 -7 0 -19 8
-26 17 -12 14 -12 16 1 9 8 -5 3 3 -12 16 -15 14 -25 28 -21 32 3 3 -1 6 -10
6 -10 0 -17 5 -17 11 0 7 -16 28 -35 48 -89 92 -105 111 -100 111 4 0 -10 15
-29 34 -20 18 -36 38 -36 45 0 6 -9 16 -20 23 -11 7 -20 18 -20 25 0 7 -6 12
-12 11 -7 -2 -12 3 -10 10 1 6 -5 12 -15 12 -9 0 -14 3 -10 6 3 3 -8 19 -24
35 -16 15 -29 33 -29 39 0 6 -4 8 -10 5 -5 -3 -10 -1 -10 4 0 6 -16 27 -35 47
-19 20 -32 41 -28 47 3 7 3 9 -1 5 -9 -8 -49 29 -59 55 -4 10 -11 16 -16 13
-5 -3 -11 4 -14 15 -4 13 -10 18 -18 13 -7 -4 -10 -3 -6 3 3 5 -14 31 -39 57
-24 26 -42 52 -39 57 4 5 -2 6 -12 2 -10 -3 -15 -3 -11 1 3 4 -7 21 -23 37
-16 16 -29 34 -29 39 0 6 -6 10 -14 10 -8 0 -17 9 -21 20 -3 11 -18 29 -32 40
-15 12 -20 20 -12 21 9 0 7 3 -4 8 -10 4 -18 11 -17 15 1 5 -10 16 -25 26 -15
10 -27 21 -28 26 -1 5 -5 8 -9 6 -5 -1 -8 4 -8 12 0 8 -12 24 -26 35 -15 12
-23 21 -19 21 4 0 -7 14 -25 30 -18 17 -30 30 -27 30 2 0 -17 23 -44 52 -26
28 -45 56 -42 61 3 6 1 7 -5 3 -12 -7 -44 33 -36 46 3 5 2 8 -3 7 -17 -3 -36
1 -31 7 6 5 -7 21 -84 106 -16 17 -28 34 -28 39 0 5 -7 9 -15 9 -8 0 -15 9
-15 21 0 11 -4 18 -9 15 -5 -3 -19 10 -32 29 -13 19 -30 35 -36 35 -7 0 -12 3
-11 8 3 14 -14 42 -23 36 -5 -3 -9 -1 -9 4 0 9 -18 32 -77 97 -10 11 -17 23
-16 27 2 5 -4 8 -12 8 -8 0 -15 5 -15 11 0 5 -4 7 -10 4 -6 -3 -7 1 -4 9 3 9
1 16 -6 16 -6 0 -8 5 -5 10 4 6 2 9 -3 8 -11 -3 -52 40 -52 54 0 4 -7 8 -15 8
-8 0 -14 3 -14 8 3 20 -2 31 -15 26 -7 -3 -16 2 -19 10 -4 9 -14 16 -22 16 -9
0 -13 5 -10 10 3 6 -5 10 -18 10 -14 0 -27 6 -30 13 -3 9 -60 12 -238 12 -201
0 -234 -2 -235 -15 0 -8 2 -19 5 -24 8 -17 7 -57 -2 -63 -4 -2 -3 -11 4 -19 9
-11 9 -14 -1 -14 -9 0 -10 -3 -1 -13 6 -8 7 -17 3 -21 -10 -11 -9 -30 1 -37 5
-4 4 -17 -3 -30 -7 -13 -9 -24 -4 -26 10 -3 11 -70 1 -80 -4 -3 -2 -12 4 -20
9 -10 8 -13 -1 -13 -9 0 -10 -3 -1 -13 6 -8 7 -17 3 -21 -10 -11 -9 -30 1 -37
5 -4 4 -17 -3 -30 -7 -13 -9 -24 -4 -26 10 -3 11 -70 1 -80 -4 -3 -2 -12 4
-20 9 -10 8 -13 -1 -13 -9 0 -10 -3 -1 -13 6 -8 7 -17 3 -21 -10 -11 -9 -30 1
-37 5 -4 4 -17 -3 -30 -7 -13 -9 -24 -4 -26 10 -3 11 -70 1 -80 -4 -3 -2 -12
4 -20 9 -10 8 -13 -1 -13 -9 0 -10 -3 -1 -13 6 -8 7 -17 3 -21 -10 -11 -9 -30
1 -37 5 -4 4 -17 -3 -30 -7 -13 -9 -24 -4 -26 10 -3 11 -70 1 -80 -4 -3 -2
-12 4 -20 9 -10 8 -13 -1 -13 -9 0 -10 -3 -1 -13 6 -8 7 -17 3 -21 -10 -11 -9
-30 1 -37 5 -4 4 -17 -3 -30 -7 -13 -9 -24 -4 -26 10 -3 11 -70 1 -80 -4 -3
-2 -12 4 -20 9 -10 8 -13 -1 -13 -9 0 -10 -3 -1 -13 6 -8 7 -17 3 -21 -10 -11
-9 -30 1 -37 5 -4 4 -17 -3 -30 -7 -13 -9 -24 -4 -26 10 -3 11 -70 1 -80 -4
-3 -2 -12 4 -20 9 -10 8 -13 -1 -13 -9 0 -10 -3 -1 -13 6 -8 7 -17 3 -21 -10
-11 -9 -30 1 -37 5 -4 4 -17 -3 -30 -7 -13 -9 -24 -4 -26 10 -3 11 -70 1 -80
-4 -3 -2 -12 4 -20 9 -10 8 -13 -1 -13 -9 0 -10 -3 -1 -13 6 -8 7 -17 3 -21
-10 -11 -9 -30 1 -37 5 -4 4 -17 -3 -30 -7 -13 -9 -24 -4 -26 10 -3 11 -70 1
-80 -4 -3 -2 -12 4 -20 9 -10 8 -13 -1 -13 -9 0 -10 -3 -1 -13 6 -8 7 -17 3
-21 -10 -11 -9 -30 1 -37 5 -4 4 -17 -3 -30 -7 -13 -9 -24 -4 -26 10 -3 11
-70 1 -80 -4 -3 -2 -12 4 -20 9 -10 8 -13 -1 -13 -9 0 -10 -3 -1 -13 6 -8 7
-17 3 -21 -10 -11 -9 -30 1 -37 5 -4 4 -17 -3 -30 -7 -13 -9 -24 -4 -26 10 -3
11 -70 1 -80 -4 -3 -2 -12 4 -20 9 -10 8 -13 -1 -13 -9 0 -10 -3 -1 -13 6 -8
7 -17 3 -21 -10 -11 -9 -30 1 -37 5 -4 4 -17 -3 -30 -7 -13 -9 -24 -4 -26 10
-3 11 -70 1 -80 -4 -3 -2 -12 4 -20 9 -10 8 -13 -1 -13 -9 0 -10 -3 -1 -13 6
-8 7 -17 3 -21 -10 -11 -9 -30 1 -37 5 -4 4 -17 -3 -30 -7 -13 -9 -24 -4 -26
10 -3 11 -70 1 -80 -4 -3 -2 -12 4 -20 9 -10 8 -13 -1 -13 -9 0 -10 -3 -1 -13
6 -8 7 -17 3 -21 -10 -11 -9 -30 1 -37 5 -4 4 -17 -3 -30 -7 -13 -9 -24 -4
-26 10 -3 11 -70 1 -80 -4 -3 -2 -12 4 -20 9 -10 8 -13 -1 -13 -9 0 -10 -3 -1
-13 6 -8 7 -17 3 -21 -10 -11 -9 -30 1 -37 5 -4 4 -17 -3 -30 -7 -13 -9 -24
-4 -26 10 -3 11 -70 1 -80 -4 -3 -2 -12 4 -20 9 -10 8 -13 -1 -13 -9 0 -10 -3
-1 -13 6 -8 7 -17 3 -21 -10 -11 -9 -30 1 -37 5 -4 4 -17 -3 -30 -7 -13 -9
-24 -4 -26 10 -3 11 -70 1 -80 -4 -3 -2 -12 4 -20 9 -10 8 -13 -1 -13 -9 0
-10 -3 -1 -13 6 -8 7 -17 3 -21 -10 -11 -9 -30 1 -37 5 -4 4 -17 -3 -30 -7
-13 -9 -24 -4 -26 10 -3 11 -70 1 -79 -3 -4 -1 -12 6 -19 13 -13 45 -14 65 -2
8 6 10 3 5 -9 -5 -13 -3 -15 8 -8 20 13 99 13 99 0 0 -6 4 -4 10 4 5 8 12 11
16 7 4 -4 13 -2 20 4 8 7 14 7 19 -1 4 -7 12 -7 26 0 10 6 19 8 19 4 0 -3 6
-2 13 3 6 6 20 9 29 8 10 -2 16 2 15 8 -1 7 4 11 11 10 6 -2 12 2 12 7 0 6 5
10 11 10 14 0 63 50 72 73 4 10 11 15 17 12 6 -3 7 1 4 9 -4 9 -1 16 6 16 6 0
10 6 7 13 -2 6 1 23 8 37 13 28 13 39 2 58 -5 6 -4 12 0 12 5 0 8 612 8 1361
0 748 3 1363 8 1366 4 2 4 10 0 16 -10 16 -11 47 -3 47 15 0 59 -53 53 -64 -3
-6 -3 -8 2 -4 5 5 15 -1 22 -12 8 -11 19 -17 25 -14 6 4 8 2 4 -4 -3 -6 2 -15
11 -21 10 -6 15 -11 11 -11 -3 0 11 -18 33 -41 21 -22 39 -45 39 -50 0 -5 6
-9 14 -9 8 0 18 -9 21 -20 3 -11 11 -20 16 -20 5 0 9 -7 9 -16 0 -10 5 -14 16
-10 8 3 12 2 9 -4 -3 -6 -2 -10 4 -10 5 0 13 -9 16 -20 3 -11 13 -20 21 -20 8
0 13 -4 10 -9 -3 -5 10 -21 29 -37 19 -15 35 -32 35 -38 0 -6 18 -26 40 -45
22 -19 40 -41 40 -48 0 -8 4 -11 10 -8 5 3 10 -1 10 -10 0 -8 10 -20 23 -25
12 -5 18 -9 13 -9 -6 -1 -1 -9 10 -19 10 -10 28 -31 39 -45 11 -15 26 -27 33
-27 7 0 11 -4 8 -8 -3 -5 4 -15 15 -22 10 -8 19 -18 19 -23 0 -13 27 -37 34
-30 3 4 6 1 6 -6 0 -7 14 -26 30 -43 17 -16 27 -34 24 -40 -4 -6 -3 -8 3 -5
10 6 43 -27 43 -44 0 -5 3 -8 8 -6 9 6 33 -19 25 -27 -4 -3 2 -6 12 -6 10 0
16 -2 13 -6 -5 -4 27 -42 97 -115 8 -9 15 -21 15 -27 0 -7 7 -12 15 -12 8 0
15 -3 15 -7 0 -5 23 -32 50 -61 28 -29 50 -57 50 -63 0 -5 4 -8 9 -5 4 3 13
-6 20 -20 6 -14 16 -22 21 -19 6 3 10 -1 10 -10 0 -9 4 -13 10 -10 6 3 7 -1 4
-9 -4 -11 0 -16 11 -16 9 0 13 -4 10 -10 -3 -5 1 -10 9 -10 9 0 16 -5 16 -12
0 -6 16 -27 36 -45 20 -18 33 -33 30 -33 -4 0 16 -22 44 -50 28 -27 49 -50 47
-50 -3 0 15 -20 39 -45 24 -25 44 -50 44 -55 0 -6 7 -10 15 -10 8 0 14 -6 12
-12 -1 -7 4 -12 11 -11 6 2 12 -1 12 -5 0 -13 33 -48 53 -55 9 -3 17 -11 17
-17 0 -6 4 -9 9 -6 5 3 12 -1 15 -10 3 -8 10 -13 15 -9 6 3 14 -3 20 -12 5
-10 12 -17 15 -16 13 5 66 -10 66 -19 0 -6 6 -8 14 -5 8 3 17 3 21 -1 4 -4 16
-7 28 -7 12 -1 27 -4 34 -8 6 -4 14 -3 18 3 4 6 12 7 18 3 22 -14 49 -14 41
-1 -6 10 -5 10 8 1 8 -7 18 -10 22 -6 4 4 19 8 34 9 42 2 44 3 36 17 -6 9 -4
9 8 -1 11 -9 18 -10 23 -2 3 6 11 8 16 5 5 -4 9 -1 9 4 0 6 3 11 8 10 15 -2
52 14 52 23 0 5 5 6 10 3 6 -3 13 1 16 9 3 9 10 14 14 11 4 -3 11 2 14 11 3 9
13 14 21 11 9 -4 12 -1 8 9 -3 8 -1 14 3 12 13 -4 85 72 78 83 -3 5 0 9 6 9
15 0 40 25 40 40 0 6 3 9 8 7 7 -4 40 26 45 41 1 4 5 6 10 4 4 -1 6 1 6 5 -1
5 -1 15 0 23 1 13 2 13 11 0 8 -13 10 -12 10 3 0 9 5 17 11 17 5 0 8 4 4 9 -3
5 4 13 16 16 11 4 18 9 15 12 -2 3 13 23 35 44 22 21 36 39 32 39 -4 1 3 7 17
15 14 8 21 14 16 15 -5 0 4 13 20 29 58 58 99 106 99 116 1 5 6 9 13 7 7 -1
12 2 12 8 0 5 24 33 53 62 28 29 45 49 37 44 -8 -4 -6 0 4 8 11 9 24 16 30 16
5 0 6 3 3 7 -4 3 2 13 13 20 11 8 18 19 15 24 -4 5 1 9 9 9 8 0 18 9 21 20 3
11 12 20 20 20 7 0 15 9 18 21 4 13 10 18 18 13 8 -4 10 -3 5 4 -4 7 -2 12 3
12 6 0 11 5 11 11 0 13 30 44 31 32 0 -4 4 2 10 15 5 13 13 20 19 17 5 -3 10
3 10 15 0 12 4 19 8 16 5 -3 15 6 22 19 7 13 17 22 22 19 4 -3 8 -1 8 4 0 6
14 24 30 42 17 18 30 36 30 42 0 5 5 6 10 3 6 -3 10 -1 10 5 0 6 16 26 36 45
20 19 32 35 27 35 -4 1 3 7 17 15 14 8 21 14 15 15 -5 0 10 18 33 40 23 23 42
45 42 50 0 6 7 10 15 10 8 0 14 4 12 9 -1 5 10 20 25 34 15 14 26 26 25 28 -1
2 11 18 27 34 16 17 26 23 21 15 -5 -9 -5 -12 1 -7 5 5 10 13 10 18 1 5 2 14
3 19 0 6 8 10 16 10 8 0 15 7 15 16 0 8 4 13 9 9 5 -3 12 4 16 15 4 11 11 18
16 15 5 -4 9 1 9 10 0 9 9 19 19 22 12 3 17 11 14 19 -3 9 0 14 8 12 7 -2 14
4 14 12 0 8 6 14 13 13 7 -2 12 4 12 12 0 9 7 18 15 21 8 4 15 13 15 21 0 8 5
11 10 8 6 -3 10 -1 10 5 0 6 5 8 12 4 6 -4 8 -3 4 4 -3 6 -2 13 4 17 6 4 7 11
4 17 -4 6 -2 8 4 4 5 -3 13 0 15 6 5 13 7 5 11 -44 1 -13 -2 -28 -6 -35 -5 -6
-4 -14 2 -18 6 -4 8 -15 5 -26 -4 -12 -2 -19 7 -19 8 0 9 -3 2 -8 -6 -4 -10
-46 -10 -105 1 -55 -3 -101 -7 -104 -4 -3 -4 -10 1 -16 10 -14 9 -97 -1 -114
-6 -9 -3 -11 9 -6 13 5 15 3 8 -8 -12 -19 -13 -91 -2 -106 5 -6 5 -13 0 -17
-5 -3 -8 -37 -7 -75 1 -43 -2 -68 -8 -64 -6 4 -7 1 -1 -8 5 -8 9 -25 9 -39 0
-14 4 -31 9 -39 7 -10 6 -12 -4 -6 -9 6 -10 2 -5 -15 5 -17 4 -21 -5 -15 -9 6
-11 4 -4 -6 11 -19 12 -199 0 -192 -5 4 -6 0 0 -8 5 -8 9 -25 9 -39 0 -14 4
-31 9 -39 7 -10 6 -12 -4 -6 -9 6 -10 2 -5 -15 5 -17 4 -21 -5 -15 -9 6 -11 4
-4 -6 12 -20 12 -359 -1 -351 -5 3 -4 -2 4 -11 7 -9 10 -17 6 -17 -4 0 -2 -6
4 -14 7 -9 8 -17 2 -20 -5 -3 -8 -14 -6 -24 1 -9 -2 -22 -7 -29 -6 -7 -5 -14
2 -18 6 -4 8 -16 4 -27 -5 -16 -3 -19 7 -12 11 6 12 5 3 -7 -7 -9 -10 -92 -10
-241 1 -148 -2 -224 -9 -220 -5 3 -4 -2 4 -11 7 -9 10 -17 6 -17 -4 0 -2 -6 4
-14 7 -9 8 -17 2 -20 -5 -3 -8 -14 -6 -24 1 -9 -2 -22 -7 -29 -6 -7 -5 -14 2
-18 6 -4 8 -16 4 -27 -5 -16 -3 -19 7 -12 11 6 12 5 3 -7 -7 -9 -10 -69 -10
-161 1 -95 -3 -144 -9 -140 -5 3 -5 -1 1 -9 6 -8 10 -27 9 -44 -1 -16 3 -33 9
-37 8 -6 8 -8 0 -8 -6 0 -11 -11 -11 -25 0 -14 4 -25 9 -25 6 0 6 -6 -1 -14
-10 -11 -8 -17 6 -25 11 -6 13 -11 5 -11 -10 0 -10 -4 2 -16 9 -8 16 -22 16
-29 0 -8 8 -19 18 -24 9 -6 13 -11 7 -11 -15 0 63 -70 79 -70 8 0 17 -8 20
-17 6 -14 9 -15 15 -4 7 10 10 9 14 -3 4 -9 11 -16 17 -16 6 0 8 6 4 13 -5 7
-2 7 10 -2 11 -10 43 -15 96 -15 52 0 77 -4 72 -10 -4 -7 -1 -7 9 0 8 6 35 10
61 10 25 -1 44 2 42 6 -3 5 1 8 8 8 9 0 10 3 2 8 -12 7 -12 47 -1 58 4 4 2 13
-4 21 -9 10 -8 17 1 28 7 8 8 15 3 15 -11 0 -10 100 1 118 4 7 3 12 -2 12 -10
0 -9 36 1 46 4 4 2 13 -4 21 -9 10 -8 17 1 28 7 8 8 15 3 15 -5 0 -9 9 -10 20
-1 11 2 18 6 16 4 -3 8 1 8 9 0 8 -3 15 -6 15 -9 0 -6 404 3 418 4 7 4 12 -1
12 -10 0 -10 91 1 108 4 7 3 12 -2 12 -10 0 -9 36 1 46 4 4 2 13 -4 21 -9 10
-8 17 1 28 7 8 8 15 3 15 -11 0 -10 100 1 118 4 7 3 12 -2 12 -10 0 -9 36 1
46 4 4 2 13 -4 21 -9 10 -8 17 1 28 7 8 8 15 3 15 -5 0 -9 9 -10 20 -1 11 2
18 6 16 4 -3 8 1 8 9 0 8 -3 15 -6 15 -9 0 -6 404 3 418 4 7 4 12 -1 12 -10 0
-10 91 1 108 4 7 3 12 -2 12 -10 0 -9 36 1 46 4 4 2 13 -4 21 -9 10 -8 17 1
28 7 8 8 15 3 15 -11 0 -10 100 1 118 4 7 3 12 -2 12 -10 0 -9 36 1 46 4 4 2
13 -4 21 -9 10 -8 17 1 28 7 8 8 15 3 15 -5 0 -9 9 -10 20 -1 11 2 18 6 16 4
-3 8 1 8 9 0 8 -3 15 -6 15 -9 0 -6 404 3 418 4 7 4 12 -1 12 -10 0 -10 91 1
108 4 7 3 12 -2 12 -10 0 -9 36 1 46 4 4 2 13 -4 21 -9 10 -8 17 1 28 7 8 8
15 3 15 -11 0 -10 100 1 118 4 7 3 12 -2 12 -10 0 -9 36 1 46 4 4 2 13 -4 21
-9 10 -8 17 1 28 7 8 8 15 3 15 -5 0 -9 9 -10 20 -1 11 2 18 6 16 4 -3 8 1 8
9 0 8 -3 15 -6 15 -8 0 -5 349 2 357 4 3 2 12 -4 20 -9 10 -8 17 1 28 8 9 8
15 2 15 -11 0 -10 45 1 57 4 3 2 12 -4 20 -9 10 -8 17 1 28 7 8 8 15 3 15 -5
0 -9 9 -10 20 -1 11 3 20 8 20 6 0 7 5 3 11 -4 7 -7 21 -8 33 -1 16 -7 20 -24
19 -15 -2 -21 1 -16 9 5 7 3 8 -7 3 -21 -14 -60 -15 -53 -3 5 7 2 8 -7 2 -20
-12 -38 -14 -45 -3 -3 5 -11 6 -17 2 -19 -12 -58 -13 -51 -1 5 7 2 8 -7 2 -20
-12 -38 -14 -45 -3 -3 5 -10 6 -16 3 -20 -13 -102 -13 -110 -1 -6 9 -8 9 -8 0z"/>
<path d="M5690 10542 c0 -6 -12 -10 -27 -9 l-27 2 -1 -85 c0 -47 3 -91 8 -97
6 -8 6 -13 0 -13 -5 0 -9 -9 -10 -20 -1 -13 2 -18 9 -14 7 5 8 2 2 -7 -12 -19
-14 -68 -3 -75 5 -3 6 -11 2 -17 -11 -18 -11 -117 0 -117 6 0 6 -5 0 -12 -11
-15 -11 -188 0 -206 5 -6 4 -12 0 -12 -5 0 -9 -9 -10 -20 -1 -13 2 -18 9 -14
7 5 8 2 2 -7 -12 -19 -14 -68 -3 -75 5 -3 6 -11 2 -17 -12 -19 -11 -117 1
-117 7 0 7 -3 1 -8 -12 -8 -13 -32 -2 -49 5 -7 4 -13 0 -13 -5 0 -9 -9 -10
-20 -1 -13 2 -18 9 -14 7 5 8 2 2 -7 -12 -19 -14 -68 -3 -75 5 -3 6 -11 2 -17
-11 -18 -11 -117 0 -117 6 0 6 -5 0 -12 -11 -15 -11 -188 0 -206 5 -6 4 -12 0
-12 -5 0 -9 -9 -10 -20 -1 -13 2 -18 9 -14 7 5 8 2 2 -7 -12 -19 -14 -68 -3
-75 5 -3 6 -11 2 -17 -11 -18 -11 -117 0 -117 6 0 6 -5 0 -12 -11 -15 -11
-188 0 -206 5 -6 4 -12 0 -12 -5 0 -9 -9 -10 -20 -1 -13 2 -18 9 -14 7 5 8 2
2 -7 -12 -19 -14 -68 -3 -75 5 -3 6 -11 2 -17 -11 -18 -11 -117 0 -117 5 0 3
-8 -4 -17 -12 -14 -12 -16 0 -8 11 6 12 5 5 -6 -12 -19 -14 -68 -3 -75 5 -3 4
-15 -3 -27 -14 -26 -14 -27 4 -38 7 -5 8 -9 2 -9 -9 0 -12 -73 -4 -90 1 -3 1
-9 0 -15 -8 -38 -8 -45 1 -50 5 -4 6 -12 2 -18 -11 -17 -12 -66 -2 -73 5 -3 5
-12 0 -22 -14 -26 -14 -34 1 -43 7 -5 8 -9 2 -9 -11 0 -13 -74 -2 -85 4 -4 4
-15 -1 -24 -9 -20 -8 -71 2 -88 5 -7 4 -13 0 -13 -5 0 -9 -9 -10 -20 -1 -13 2
-18 9 -14 7 5 8 2 2 -7 -12 -19 -14 -68 -3 -75 5 -3 6 -11 2 -17 -11 -18 -11
-117 0 -117 6 0 6 -5 0 -12 -11 -15 -11 -188 0 -206 5 -6 4 -12 0 -12 -5 0 -9
-9 -10 -20 -1 -13 2 -18 9 -14 7 5 8 2 2 -7 -12 -19 -14 -68 -3 -75 5 -3 6
-11 2 -17 -11 -18 -11 -117 0 -117 6 0 6 -5 0 -12 -11 -15 -11 -188 0 -206 5
-6 4 -12 0 -12 -5 0 -9 -9 -10 -20 -1 -12 3 -18 8 -14 6 3 5 -3 -2 -14 -10
-16 -9 -23 8 -41 12 -13 23 -18 26 -14 8 12 107 11 126 -1 9 -6 12 -5 7 2 -4
7 10 10 44 8 27 -1 50 1 50 5 0 4 8 6 18 4 9 -1 23 3 31 9 11 8 13 8 7 -1 -5
-9 -2 -11 8 -7 9 3 16 10 16 15 0 5 3 8 8 7 20 -6 126 87 117 103 -3 4 2 10
11 13 8 3 12 10 9 16 -3 5 -2 10 4 10 6 0 8 7 5 15 -4 8 -1 15 4 15 6 0 9 9 7
20 -2 11 0 22 4 24 10 6 8 37 -4 55 -5 9 -4 12 3 7 14 -8 11 46 -3 56 -6 5 -5
8 2 8 7 0 10 7 6 17 -5 12 -3 14 8 8 9 -5 8 -1 -3 11 -15 18 -16 23 -3 47 8
15 10 25 5 22 -5 -3 -8 24 -7 60 1 36 -2 67 -8 69 -6 3 -5 5 1 5 8 1 10 14 7
36 -3 22 1 42 9 52 8 11 9 14 1 10 -9 -6 -12 13 -10 77 2 47 0 83 -5 80 -4 -3
-4 5 0 18 5 13 7 82 6 153 -1 86 2 135 10 144 8 11 8 13 -1 8 -9 -6 -12 10
-10 63 1 39 -2 72 -8 74 -5 3 -5 5 2 5 7 1 10 8 6 18 -5 12 -3 14 8 8 9 -5 8
-1 -3 11 -15 18 -16 23 -3 47 8 15 10 25 5 22 -5 -3 -8 24 -7 60 1 36 -2 67
-8 69 -6 3 -5 5 1 5 8 1 10 14 7 36 -3 22 1 42 9 52 7 9 8 14 2 10 -8 -5 -12
12 -12 57 0 35 -3 70 -7 77 -5 8 -4 10 3 5 7 -4 12 -3 12 1 0 5 9 9 20 10 13
1 18 -2 14 -9 -5 -7 -2 -8 7 -2 19 12 137 15 145 3 3 -5 11 -9 17 -9 7 0 6 4
-3 10 -12 8 -10 10 10 10 15 0 32 -6 39 -12 11 -10 13 -10 7 0 -5 8 0 12 16
12 13 0 30 -6 37 -12 8 -8 11 -8 8 -2 -8 14 100 16 109 3 3 -5 11 -9 17 -9 7
0 6 4 -3 10 -12 8 -10 10 10 10 15 0 32 -6 39 -12 11 -10 13 -10 7 0 -5 8 0
12 16 12 13 0 30 -6 37 -12 8 -8 11 -8 8 -2 -8 14 100 16 109 3 3 -5 11 -9 17
-9 7 0 6 4 -3 10 -12 8 -10 10 10 10 15 0 32 -6 39 -12 11 -10 13 -10 7 0 -5
8 0 12 16 12 13 0 30 -6 37 -12 8 -8 11 -8 8 -2 -8 14 100 16 109 3 3 -5 11
-9 17 -9 7 0 6 4 -3 10 -12 8 -10 10 10 10 15 0 32 -6 39 -12 11 -10 13 -10 7
0 -5 8 0 12 16 12 13 0 30 -6 37 -12 8 -8 11 -8 8 -2 -8 14 100 16 109 3 3 -5
11 -9 17 -9 7 0 6 4 -3 10 -12 8 -10 10 11 10 14 0 31 -6 38 -12 11 -10 13
-10 7 0 -5 8 0 12 16 12 13 0 30 -6 37 -12 8 -8 11 -8 8 -2 -8 14 100 16 109
3 3 -5 11 -9 17 -9 9 0 9 2 -1 8 -6 5 297 8 675 7 379 -1 693 1 698 4 11 6 30
10 58 13 9 1 17 6 17 11 0 5 7 6 16 3 8 -3 12 -2 9 3 -3 6 8 18 25 27 16 10
30 21 30 25 0 3 9 16 20 29 11 12 17 26 15 30 -3 5 -1 10 4 12 13 4 31 118 19
118 -5 0 -6 5 -3 11 10 15 12 1269 2 1269 -5 0 -5 5 -1 12 4 6 6 88 5 182 -2
94 -3 180 -2 191 0 10 -5 25 -11 32 -6 8 -8 16 -5 19 3 4 -1 13 -9 21 -8 8
-12 19 -9 24 4 5 -1 9 -9 9 -9 0 -15 3 -14 8 4 13 -46 63 -58 58 -7 -3 -15 2
-18 10 -3 9 -10 12 -16 9 -5 -3 -10 -2 -10 4 0 5 -9 8 -20 6 -11 -2 -20 0 -20
4 0 5 -18 7 -40 6 -26 -2 -38 1 -33 8 4 6 1 7 -8 1 -20 -12 -38 -14 -45 -3 -3
5 -11 6 -17 2 -19 -12 -58 -13 -51 -1 5 7 2 8 -7 2 -20 -12 -38 -14 -45 -3 -3
5 -11 6 -17 2 -19 -12 -58 -13 -51 -1 5 7 2 8 -7 2 -20 -12 -38 -14 -45 -3 -3
5 -11 6 -17 2 -19 -12 -58 -13 -51 -1 5 7 2 8 -7 2 -20 -12 -38 -14 -45 -3 -3
5 -11 6 -17 2 -17 -10 -137 -11 -143 -1 -3 5 -11 5 -17 1 -19 -12 -58 -13 -51
-1 5 7 2 8 -7 2 -20 -12 -38 -14 -45 -3 -3 5 -11 6 -17 2 -19 -12 -58 -13 -51
-1 5 7 2 8 -7 2 -20 -12 -38 -14 -45 -3 -3 5 -11 6 -17 2 -19 -12 -58 -13 -51
-1 5 7 2 8 -7 2 -20 -12 -38 -14 -45 -3 -3 5 -11 6 -17 2 -19 -12 -58 -13 -51
-1 5 7 2 8 -7 2 -20 -12 -38 -14 -45 -3 -3 5 -11 6 -17 2 -18 -11 -177 -11
-170 0 4 6 1 7 -8 1 -20 -12 -38 -14 -45 -3 -3 5 -11 6 -17 2 -19 -12 -58 -13
-51 -1 5 7 2 8 -7 2 -20 -12 -38 -14 -45 -3 -3 5 -11 6 -17 2 -18 -11 -137
-11 -130 0 4 6 1 7 -8 1 -20 -12 -38 -14 -45 -3 -3 5 -11 6 -17 2 -21 -13 -58
-13 -50 0 5 9 3 9 -8 1 -16 -12 -29 -12 -46 -1 -6 4 -14 3 -17 -1 -6 -11 -36
-9 -55 3 -8 4 -12 4 -9 -1 7 -11 -341 -12 -358 -2 -6 4 -14 5 -18 1 -11 -12
-57 -12 -50 -1 5 7 2 8 -7 2 -20 -12 -38 -14 -45 -3 -3 5 -11 6 -17 2 -19 -12
-58 -13 -51 -1 5 7 2 8 -7 2 -20 -12 -38 -14 -45 -3 -3 5 -11 6 -17 2 -19 -12
-58 -13 -51 -1 5 7 2 8 -7 2 -20 -12 -38 -14 -45 -3 -3 5 -11 6 -17 2 -19 -12
-58 -13 -51 -1 5 7 2 8 -7 2 -20 -12 -38 -14 -45 -3 -3 5 -11 6 -17 2 -18 -11
-490 -11 -504 0 -8 6 -13 6 -13 -1z"/>
<path d="M9970 10542 c0 -6 -12 -10 -27 -9 -27 2 -28 0 -29 -48 -1 -27 4 -56
10 -64 8 -11 8 -13 0 -8 -14 8 -14 -91 0 -112 6 -9 5 -12 0 -8 -6 3 -10 -35
-10 -98 0 -65 3 -102 9 -98 6 4 7 1 1 -8 -14 -21 -14 -120 0 -112 8 5 8 3 0
-8 -13 -17 -13 -168 0 -188 6 -9 5 -12 -1 -8 -13 8 -12 -92 1 -112 6 -9 5 -12
0 -8 -6 3 -10 -35 -10 -98 0 -65 3 -102 9 -98 6 4 7 1 1 -8 -14 -21 -14 -120
0 -112 8 5 8 3 0 -8 -13 -17 -13 -168 0 -188 6 -9 5 -12 -1 -8 -13 8 -12 -92
1 -112 6 -9 5 -12 0 -8 -6 3 -10 -35 -10 -98 0 -65 3 -102 9 -98 6 4 7 1 1 -8
-13 -20 -14 -120 -1 -112 6 4 7 1 1 -8 -13 -20 -13 -171 0 -188 8 -11 8 -13 0
-8 -14 8 -14 -91 0 -112 6 -9 5 -12 0 -8 -6 3 -10 -35 -10 -98 0 -65 3 -102 9
-98 6 4 7 1 1 -8 -14 -21 -14 -120 0 -112 8 5 8 3 0 -8 -13 -17 -13 -168 0
-188 6 -9 5 -12 -1 -8 -13 8 -12 -92 1 -112 6 -9 5 -12 0 -8 -6 3 -10 -35 -10
-98 0 -65 3 -102 9 -98 6 4 7 1 1 -8 -14 -21 -14 -120 0 -112 8 5 8 3 0 -8
-13 -17 -13 -168 0 -188 6 -9 5 -12 -1 -8 -13 8 -12 -92 1 -112 6 -9 5 -12 0
-8 -6 3 -10 -35 -10 -98 0 -65 3 -102 9 -98 6 4 7 1 1 -8 -13 -20 -14 -120 -1
-112 6 4 7 1 1 -8 -11 -17 -13 -200 -2 -193 4 3 8 1 8 -5 0 -5 14 -7 31 -4 23
3 29 1 24 -8 -6 -9 -4 -10 6 -3 21 13 139 14 139 0 0 -6 4 -5 9 3 5 7 14 10
20 7 6 -4 11 -4 11 1 0 4 10 8 23 9 33 1 50 7 65 24 12 13 13 13 6 0 -4 -8 4
-5 18 8 13 12 28 19 31 15 4 -3 7 1 7 10 0 8 9 19 20 22 11 4 18 11 15 16 -4
5 -2 9 4 9 6 0 13 11 17 25 3 14 10 22 15 19 5 -3 9 6 9 20 0 14 5 26 11 26 5
0 7 5 4 10 -4 6 -2 17 5 25 7 8 7 15 1 19 -11 7 -9 25 3 45 5 8 4 16 -4 21
-15 10 -16 11 -1 38 6 12 7 22 2 22 -10 0 -9 19 2 38 5 7 3 12 -3 12 -7 0 -8
6 0 19 13 25 13 34 0 26 -7 -4 -7 3 0 19 6 16 6 26 0 26 -9 0 -6 32 5 50 3 6
2 10 -4 10 -11 0 -9 19 3 39 5 8 4 16 -4 21 -15 10 -16 11 -1 38 6 12 7 22 2
22 -10 0 -9 19 2 38 5 7 3 12 -3 12 -7 0 -8 6 0 19 13 25 13 34 0 26 -7 -4 -7
3 0 19 6 16 6 26 0 26 -9 0 -6 32 5 50 3 6 2 10 -4 10 -11 0 -9 19 3 39 5 8 4
16 -4 21 -13 8 -13 16 1 43 6 10 6 17 0 17 -10 0 -9 19 2 38 5 7 3 12 -3 12
-7 0 -8 6 0 19 13 25 13 34 0 26 -7 -4 -7 3 0 19 6 16 6 26 0 26 -9 0 -6 32 5
50 3 6 2 10 -4 10 -11 0 -9 19 3 39 5 8 4 16 -4 21 -15 10 -16 11 -1 38 6 12
7 22 2 22 -10 0 -9 19 2 38 5 7 3 12 -3 12 -7 0 -8 6 0 19 13 25 13 34 0 26
-7 -4 -7 3 0 19 6 16 6 26 0 26 -9 0 -6 32 5 50 3 6 2 10 -4 10 -11 0 -9 19 3
39 5 8 4 16 -4 21 -13 8 -13 16 1 43 6 10 6 17 0 17 -10 0 -9 19 2 38 5 7 3
12 -3 12 -7 0 -8 6 0 19 13 25 13 34 0 26 -7 -4 -7 3 0 19 6 16 6 26 0 26 -9
0 -6 32 5 50 3 6 2 10 -4 10 -11 0 -9 19 3 39 5 8 4 16 -4 21 -13 8 -13 16 1
43 6 10 6 17 0 17 -10 0 -9 19 2 38 5 7 3 12 -3 12 -7 0 -8 6 0 19 13 25 13
34 0 26 -7 -4 -7 3 0 19 6 16 6 26 0 26 -9 0 -6 32 5 50 3 6 2 10 -4 10 -11 0
-9 19 3 39 5 8 4 16 -4 21 -15 10 -16 11 -1 38 6 12 7 22 2 22 -10 0 -9 19 2
38 5 7 3 12 -3 12 -7 0 -8 6 0 19 13 25 13 34 0 26 -7 -4 -7 3 0 19 6 16 6 26
0 26 -9 0 -6 32 5 50 3 6 2 10 -4 10 -11 0 -9 19 3 39 5 8 4 16 -4 21 -13 8
-13 16 1 43 6 10 6 17 0 17 -10 0 -9 19 2 38 5 7 3 12 -3 12 -7 0 -8 6 0 19
13 25 13 34 0 26 -7 -4 -7 3 0 19 6 16 6 26 0 26 -9 0 -6 32 5 50 3 6 2 10 -4
10 -10 0 -9 19 2 38 5 7 3 12 -3 12 -8 0 -7 6 1 21 6 12 7 24 3 28 -12 8 -14
41 -3 41 6 0 6 7 0 18 -6 11 -6 24 0 33 11 18 12 32 0 25 -5 -4 -7 2 -4 12 2
10 11 19 18 19 8 0 12 -4 9 -9 -3 -4 2 -8 11 -8 9 0 13 -5 10 -10 -3 -6 1 -13
9 -16 9 -3 13 -10 10 -15 -3 -5 2 -9 11 -9 9 0 13 -4 10 -10 -3 -5 1 -10 9
-10 9 0 16 -7 16 -15 0 -8 11 -22 25 -31 14 -9 22 -20 19 -25 -3 -5 3 -9 12
-9 10 0 14 -3 11 -6 -3 -4 7 -19 23 -34 16 -15 26 -30 23 -34 -3 -3 -1 -6 6
-6 13 0 41 -24 41 -34 0 -4 14 -20 30 -38 17 -17 30 -35 30 -39 0 -5 7 -9 15
-9 8 0 15 -4 15 -10 0 -5 20 -30 45 -56 25 -25 45 -48 45 -51 0 -2 16 -19 35
-35 19 -17 32 -35 29 -40 -3 -4 3 -8 12 -8 10 0 15 -3 11 -6 -3 -4 12 -24 33
-44 22 -21 40 -41 40 -44 0 -3 18 -24 40 -46 22 -22 40 -43 40 -45 0 -9 51
-55 61 -55 6 0 7 -5 4 -10 -3 -6 1 -13 9 -16 9 -3 14 -10 11 -14 -5 -8 24 -25
38 -21 5 1 6 -3 2 -9 -3 -6 16 -33 44 -60 28 -28 48 -50 45 -50 -4 0 11 -17
32 -38 22 -21 48 -50 59 -64 11 -14 29 -30 40 -36 11 -6 14 -12 7 -12 -10 0
-10 -3 2 -15 8 -8 19 -15 25 -15 6 0 11 -4 11 -9 0 -8 12 -23 96 -113 19 -21
34 -42 34 -48 0 -5 3 -9 8 -8 4 2 8 -1 9 -5 1 -5 15 -21 32 -36 17 -15 31 -33
31 -39 0 -6 8 -13 18 -16 11 -4 25 -17 32 -31 7 -13 17 -22 22 -19 4 3 8 -1 8
-8 0 -7 10 -21 23 -33 13 -11 16 -15 7 -10 -13 9 -13 8 -1 -7 7 -10 20 -18 27
-18 13 0 19 -13 15 -33 -1 -5 2 -6 7 -3 10 6 42 -29 42 -46 0 -6 3 -8 6 -5 10
10 45 -34 37 -46 -3 -6 -1 -7 5 -3 7 4 23 -4 37 -18 28 -28 40 -33 30 -13 -4
6 2 2 13 -10 11 -13 27 -23 36 -23 9 0 16 -5 16 -11 0 -5 5 -7 10 -4 6 3 10 1
10 -4 0 -6 5 -11 11 -11 5 0 7 6 3 13 -4 6 2 4 13 -5 11 -10 31 -18 46 -18 14
0 29 -5 32 -10 4 -7 12 -7 25 0 10 6 21 6 24 2 6 -10 72 -9 82 1 12 12 26 8
18 -5 -5 -10 -4 -10 6 -1 7 6 19 9 26 6 8 -3 14 0 14 7 0 6 4 9 9 5 5 -3 12
-1 16 4 3 6 12 8 20 4 8 -3 15 0 15 7 0 6 4 9 9 5 5 -3 12 -1 16 5 3 5 13 10
21 10 9 0 22 6 29 13 34 30 43 35 49 30 3 -4 6 1 6 11 0 9 4 15 9 12 11 -7 43
28 34 37 -6 6 11 11 30 8 4 0 7 6 7 14 0 8 11 22 25 31 14 9 23 19 21 22 -3 2
18 27 47 55 29 28 45 47 37 42 -8 -4 6 12 33 37 26 25 47 49 47 52 0 11 38 44
44 39 3 -4 6 0 6 8 0 8 14 27 31 42 17 15 28 27 25 27 -4 0 13 21 38 48 115
121 136 145 136 154 0 5 5 6 10 3 6 -3 10 -1 10 4 0 17 52 71 61 65 5 -3 6 1
4 8 -3 8 8 24 25 36 17 13 28 27 25 33 -4 5 -1 9 5 9 6 0 18 7 26 15 9 8 13
15 9 15 -3 0 7 13 22 28 15 16 31 27 35 25 4 -2 5 4 1 14 -3 10 -3 15 2 11 7
-7 30 10 33 25 3 13 47 52 55 49 5 -1 6 2 2 8 -3 5 -2 10 3 10 5 0 15 11 22
25 7 13 17 22 22 19 4 -3 8 0 8 7 0 7 15 27 33 45 60 61 92 99 89 108 -2 5 4
6 13 2 9 -3 13 -2 10 4 -3 6 -1 10 6 10 7 0 10 3 7 6 -4 3 17 30 45 60 58 61
94 103 106 122 5 8 12 14 17 14 5 0 8 4 7 8 -2 5 6 12 17 15 11 4 18 11 15 16
-4 5 -2 9 4 9 5 0 13 9 16 20 4 11 11 18 16 15 5 -4 9 -1 9 5 0 6 5 8 12 4 6
-4 8 -3 4 4 -3 6 2 15 11 21 10 6 14 11 9 11 -4 0 10 18 33 40 22 22 41 44 41
50 0 5 7 10 16 10 8 0 13 4 9 9 -3 6 4 15 15 21 11 6 18 15 16 19 -3 4 6 13
20 20 l25 11 -2 -88 c-2 -48 1 -93 5 -100 4 -7 4 -12 -1 -12 -9 0 -8 -134 2
-149 3 -6 3 -11 -2 -11 -9 0 -8 -134 2 -149 3 -6 3 -11 -2 -11 -9 0 -8 -134 2
-149 3 -6 3 -11 -2 -11 -9 0 -8 -134 2 -149 3 -6 3 -11 -2 -11 -9 0 -8 -134 2
-149 3 -6 3 -11 -2 -11 -9 0 -8 -134 2 -149 3 -6 3 -11 -2 -11 -6 0 -9 -131
-2 -150 1 -3 0 -9 -1 -15 -2 -12 -2 -378 1 -385 1 -3 1 -9 0 -14 -3 -12 -2
-448 0 -461 1 -5 1 -14 0 -19 -4 -20 -3 -458 1 -462 3 -2 2 -26 -2 -53 -3 -27
-3 -57 1 -67 3 -11 2 -25 -3 -31 -7 -9 -7 -13 0 -13 6 0 9 -11 7 -25 -1 -14 1
-25 6 -25 5 0 6 -7 2 -15 -3 -9 -2 -15 3 -14 21 4 28 -2 14 -11 -13 -8 -12
-10 4 -10 12 0 16 -5 13 -14 -4 -9 2 -17 14 -21 10 -4 18 -9 16 -13 -2 -4 4
-15 15 -24 10 -10 18 -15 18 -10 1 4 10 -4 20 -17 11 -13 20 -20 20 -17 0 4
13 0 30 -9 35 -18 44 -19 34 -2 -6 8 -3 8 9 -2 9 -7 37 -13 62 -14 25 0 45 -5
45 -11 0 -7 3 -7 8 0 8 14 54 13 64 -1 5 -6 8 -6 8 1 0 7 16 11 38 10 43 -3
63 9 55 31 -3 8 0 19 8 24 8 5 9 9 4 9 -6 0 -11 25 -12 55 -1 37 2 53 9 49 7
-5 8 -2 2 7 -14 22 -14 70 -1 62 8 -4 7 -1 -1 9 -14 17 -13 53 2 77 6 9 5 12
-2 7 -12 -7 -12 71 0 90 4 6 4 14 1 18 -4 4 -8 16 -10 27 -2 14 1 18 9 13 10
-6 10 -4 0 8 -14 17 -13 53 2 77 6 9 5 12 -2 7 -12 -7 -12 71 0 90 4 6 4 14 1
18 -4 4 -8 16 -10 27 -2 14 1 18 9 13 10 -6 10 -4 0 8 -14 17 -13 53 2 77 6 9
5 12 -2 7 -12 -7 -12 71 0 90 4 6 4 14 1 18 -4 4 -8 16 -10 27 -2 14 1 18 9
13 10 -6 10 -4 0 8 -14 17 -13 53 2 77 6 9 5 12 -1 8 -7 -5 -10 11 -10 43 1
28 6 50 12 50 7 0 7 3 0 8 -15 10 -16 94 -1 85 8 -5 8 -3 0 8 -15 20 -15 59
-1 59 8 0 8 3 2 8 -15 10 -16 94 -1 85 8 -5 8 -3 0 8 -15 20 -15 59 -1 59 8 0
8 3 2 8 -15 10 -16 94 -1 85 8 -5 8 -3 0 8 -15 20 -15 59 -1 59 8 0 8 3 2 8
-13 9 -16 94 -3 86 5 -3 4 3 -4 15 -10 16 -10 25 -1 40 7 10 9 22 5 25 -3 4
-7 16 -9 27 -2 14 1 18 9 13 10 -6 10 -4 0 8 -14 17 -13 53 2 77 6 9 5 12 -2
7 -12 -7 -12 71 0 90 4 6 4 14 1 18 -4 4 -8 16 -10 27 -2 14 1 18 9 13 10 -6
10 -4 0 8 -14 17 -13 53 2 77 6 9 5 12 -2 7 -12 -7 -12 71 0 90 4 6 4 14 1 18
-4 4 -8 16 -10 27 -2 14 1 18 9 13 10 -6 10 -5 1 7 -15 18 -15 89 1 89 7 0 7
3 1 8 -15 11 -17 64 -2 55 8 -5 8 -2 -1 9 -14 17 -13 53 2 77 6 9 5 12 -2 7
-12 -7 -12 71 0 90 4 6 4 14 1 18 -4 4 -8 16 -10 27 -2 14 1 18 9 13 10 -6 10
-4 0 8 -14 17 -13 53 2 77 6 9 5 12 -2 7 -12 -7 -12 71 0 90 4 6 4 14 1 18 -4
4 -8 16 -10 27 -2 14 1 18 9 13 10 -6 10 -5 1 7 -15 18 -15 89 1 89 7 0 7 3 1
8 -15 11 -17 64 -2 55 8 -5 8 -2 -1 9 -14 17 -13 53 2 77 6 9 5 12 -2 7 -12
-7 -12 71 0 90 4 6 4 14 1 18 -4 4 -8 16 -10 27 -2 14 1 18 9 13 10 -6 10 -4
0 8 -14 17 -13 53 2 77 6 9 5 12 -2 7 -12 -7 -12 71 0 90 4 6 4 14 1 18 -4 4
-8 16 -10 27 -2 14 1 18 9 13 10 -6 10 -5 1 7 -15 18 -15 89 1 89 7 0 7 3 1 8
-15 11 -17 64 -2 55 8 -5 8 -2 -1 9 -14 17 -13 53 2 77 6 10 5 12 -2 7 -8 -5
-11 5 -10 31 1 21 0 50 0 65 l-2 27 -141 -3 c-77 -1 -143 2 -145 6 -3 5 -11 5
-17 1 -7 -5 -38 -9 -69 -8 -32 0 -58 -4 -58 -8 0 -5 -5 -5 -10 -2 -6 4 -17 1
-25 -5 -8 -6 -18 -9 -24 -6 -5 3 -12 -1 -15 -10 -4 -9 -13 -14 -22 -10 -8 3
-12 2 -9 -4 3 -6 1 -10 -5 -10 -6 0 -8 -4 -5 -10 4 -6 -1 -7 -12 -3 -10 3 -15
3 -12 -1 4 -4 -16 -29 -42 -56 -27 -28 -47 -50 -44 -50 4 0 -42 -53 -102 -118
-18 -19 -33 -39 -33 -44 0 -5 -4 -6 -10 -3 -5 3 -10 -1 -10 -9 0 -8 -10 -22
-22 -30 -12 -9 -18 -16 -13 -16 5 0 -1 -7 -13 -16 -12 -8 -20 -20 -16 -25 3
-5 2 -8 -3 -7 -10 3 -53 -33 -53 -45 0 -14 -48 -56 -56 -49 -4 4 -4 2 -1 -4 4
-6 -13 -31 -36 -55 -23 -24 -43 -47 -45 -51 -1 -4 -14 -20 -29 -35 -14 -16
-23 -22 -18 -14 5 10 4 12 -4 7 -6 -4 -9 -11 -6 -16 3 -5 -14 -28 -38 -52 -24
-24 -42 -49 -39 -56 2 -7 0 -12 -5 -11 -23 4 -35 -2 -29 -16 5 -14 -5 -20 -27
-16 -5 1 -6 -3 -3 -8 4 -5 -12 -28 -34 -50 -23 -23 -38 -41 -35 -41 3 0 -8
-13 -25 -30 -16 -16 -30 -34 -30 -40 0 -6 -4 -9 -9 -5 -5 3 -12 -3 -16 -14 -3
-11 -12 -22 -20 -25 -8 -3 -15 -13 -15 -21 0 -9 -4 -14 -8 -11 -5 3 -15 -6
-22 -19 -7 -14 -20 -25 -27 -25 -8 0 -12 -4 -8 -9 3 -6 -3 -14 -12 -20 -10 -6
-15 -11 -11 -11 3 0 -13 -20 -38 -45 -24 -25 -41 -45 -38 -45 3 0 -13 -18 -35
-39 -23 -22 -41 -43 -41 -48 0 -4 -16 -23 -35 -41 -20 -17 -33 -32 -30 -32 3
0 -10 -15 -29 -34 -20 -18 -32 -36 -29 -40 4 -3 -1 -6 -10 -6 -10 0 -16 -6
-15 -12 2 -7 -2 -12 -9 -11 -8 2 -10 -4 -6 -14 4 -11 3 -14 -5 -9 -7 4 -12 3
-12 -3 0 -5 -13 -23 -30 -39 -16 -17 -30 -36 -30 -42 0 -6 -4 -8 -10 -5 -5 3
-10 1 -10 -4 0 -6 -20 -32 -45 -57 -24 -26 -42 -51 -39 -56 3 -5 2 -7 -3 -6
-10 4 -53 -39 -53 -53 0 -5 -4 -7 -10 -4 -9 6 -14 -8 -11 -28 1 -5 -2 -6 -6
-4 -11 7 -33 -19 -25 -29 4 -4 -1 -4 -11 -1 -13 5 -17 3 -15 -5 3 -7 -11 -29
-31 -48 -20 -19 -36 -38 -36 -42 0 -4 -10 -15 -22 -23 -13 -9 -23 -23 -23 -32
0 -9 -3 -13 -6 -10 -8 7 -50 -44 -46 -55 1 -5 -5 -8 -14 -8 -8 0 -13 -4 -10
-9 11 -18 -21 -19 -34 -1 -8 11 -17 17 -22 14 -4 -3 -8 2 -8 10 0 9 -5 16 -11
16 -5 0 -7 5 -4 10 3 6 1 10 -5 10 -13 0 -46 30 -33 30 4 0 0 5 -9 11 -10 5
-18 17 -18 26 0 9 -3 14 -6 10 -8 -8 -34 18 -34 33 0 6 -5 8 -12 4 -8 -5 -9
-2 -4 12 4 10 4 16 1 12 -7 -6 -45 26 -45 38 0 4 -16 21 -34 39 -19 18 -32 35
-29 39 4 3 -1 6 -10 6 -16 0 -22 12 -18 33 1 5 -3 6 -9 2 -5 -3 -10 1 -10 9 0
9 -3 15 -7 14 -5 -2 -9 0 -10 5 -5 14 -38 44 -45 40 -5 -2 -8 3 -8 12 0 8 -7
18 -15 21 -8 4 -13 10 -10 14 3 4 -2 10 -10 14 -8 3 -15 13 -15 23 0 15 -2 16
-10 3 -8 -13 -10 -12 -10 3 0 10 -7 20 -15 23 -8 4 -15 11 -15 18 0 6 -13 22
-30 36 -16 14 -30 29 -30 33 0 13 -27 37 -34 30 -3 -4 -6 -1 -6 5 0 12 -18 37
-62 83 -14 15 -23 30 -20 33 3 3 -2 6 -11 6 -9 0 -17 4 -17 10 0 5 -13 23 -30
40 -16 16 -27 30 -25 30 3 0 -13 17 -35 39 -22 21 -40 43 -40 47 0 5 -9 15
-20 22 -11 7 -20 19 -20 28 0 8 -4 12 -10 9 -5 -3 -10 -2 -10 4 0 5 -13 22
-30 38 -16 15 -30 31 -30 34 0 6 -51 64 -131 149 -20 22 -34 42 -31 45 3 3 -3
5 -12 5 -11 0 -16 5 -13 13 5 13 -31 43 -46 39 -5 -1 -6 2 -2 8 3 5 -5 21 -19
34 -14 13 -26 29 -26 35 0 7 -4 9 -10 6 -5 -3 -10 -1 -10 6 0 7 -18 29 -39 50
-22 20 -37 40 -34 43 4 3 1 6 -6 6 -7 0 -9 5 -5 12 4 6 3 8 -3 5 -5 -3 -17 3
-26 14 -9 10 -15 19 -12 19 2 0 -13 17 -34 38 -21 20 -43 47 -50 60 -7 12 -16
20 -22 17 -5 -4 -9 1 -9 9 0 8 -9 20 -20 26 -11 6 -20 15 -20 20 0 10 -43 60
-98 116 -19 19 -31 34 -27 34 3 0 0 7 -9 15 -8 8 -20 15 -26 15 -6 0 -9 4 -5
9 3 5 -5 17 -17 25 -12 9 -19 16 -15 16 3 0 -9 16 -28 36 -19 20 -35 40 -35
45 0 6 -5 7 -10 4 -6 -3 -13 1 -16 9 -3 9 -12 16 -20 16 -8 0 -14 5 -14 11 0
5 -4 7 -10 4 -5 -3 -10 -1 -10 5 0 7 -7 10 -15 6 -8 -3 -15 -1 -15 5 0 6 -4 7
-10 4 -5 -3 -10 -1 -10 6 0 8 -4 8 -15 -1 -11 -9 -15 -10 -15 -1 0 8 -8 10
-21 6 -16 -5 -19 -4 -14 5 6 9 4 11 -6 5 -21 -14 -60 -15 -53 -3 5 7 2 8 -7 2
-20 -12 -38 -14 -45 -3 -3 5 -11 6 -17 2 -19 -12 -58 -13 -51 -1 5 7 2 8 -7 2
-20 -12 -38 -14 -45 -3 -3 5 -11 6 -17 2 -18 -11 -51 -11 -64 -1 -9 7 -13 7
-13 0z"/>
<path d="M4085 5241 c6 -11 1 -13 -24 -9 -17 2 -31 1 -31 -3 0 -4 -9 -6 -20
-4 -11 2 -20 0 -20 -5 0 -5 -9 -7 -20 -5 -11 2 -20 0 -20 -6 0 -5 -3 -8 -7 -7
-17 3 -62 -15 -57 -23 3 -5 -4 -9 -15 -9 -11 0 -22 -9 -26 -20 -4 -11 -11 -18
-16 -15 -8 6 -13 -8 -10 -27 0 -5 -3 -8 -8 -8 -10 0 -27 -39 -23 -52 1 -5 -2
-8 -6 -8 -4 0 -9 -10 -9 -22 -3 -54 -5 -134 -3 -143 1 -5 2 -13 1 -17 0 -5 3
-8 8 -8 6 0 8 -9 6 -20 -2 -11 1 -20 7 -20 5 0 7 -7 4 -16 -3 -8 -2 -12 4 -9
6 3 10 1 10 -5 0 -6 15 -25 33 -43 38 -36 39 -37 67 -44 11 -3 20 -9 20 -14 0
-5 9 -9 19 -9 11 0 22 -4 26 -9 3 -6 13 -10 23 -10 38 -1 52 -5 52 -13 0 -5 6
-8 13 -7 6 2 26 0 42 -4 17 -4 41 -9 54 -12 12 -2 29 -9 35 -14 9 -7 17 -7 26
2 10 9 11 9 6 0 -5 -9 1 -13 18 -13 14 0 28 -5 31 -10 4 -6 10 -8 15 -5 4 3
10 -2 14 -10 3 -8 13 -15 22 -15 10 0 14 -3 11 -6 -3 -4 -2 -15 3 -25 13 -24
19 -99 8 -99 -5 0 -6 -5 -3 -10 3 -6 -1 -13 -9 -16 -9 -3 -16 -12 -16 -19 0
-13 -28 -30 -43 -26 -4 0 -10 -6 -14 -15 -5 -13 -7 -13 -14 -2 -7 10 -9 11 -9
0 0 -7 -5 -10 -10 -7 -6 4 -17 1 -25 -5 -8 -7 -15 -8 -15 -3 0 5 -11 9 -25 9
-14 0 -25 -5 -25 -10 0 -7 -3 -8 -8 -1 -4 6 -14 10 -22 10 -8 0 -18 -4 -22
-10 -5 -7 -8 -6 -8 0 0 6 -15 11 -32 12 -80 3 -108 7 -108 16 0 5 -6 5 -13 -2
-8 -6 -17 -7 -23 -1 -5 5 -22 10 -39 12 -16 2 -36 10 -43 18 -12 13 -13 13 -6
0 6 -12 5 -13 -7 -4 -11 9 -17 9 -27 -2 -7 -8 -9 -14 -3 -14 10 0 9 -19 -2
-37 -4 -6 -2 -15 4 -19 8 -4 7 -9 -2 -15 -11 -7 -11 -9 -1 -9 9 0 11 -7 7 -20
-7 -22 11 -53 26 -44 5 3 9 1 9 -3 0 -5 8 -9 18 -10 9 -1 31 -2 49 -4 18 -1
30 -5 28 -9 -2 -4 10 -7 28 -7 18 1 51 -2 75 -6 33 -5 41 -4 36 6 -6 9 -4 9 8
-1 11 -9 46 -11 134 -6 160 8 163 8 159 15 -2 3 16 11 41 17 29 8 43 16 38 24
-4 7 -3 8 5 4 21 -13 120 102 106 124 -3 5 3 13 12 19 11 6 13 11 5 11 -7 0
-10 4 -7 10 12 20 14 50 2 50 -8 0 -9 3 -1 8 11 7 15 92 4 92 -3 0 -7 11 -8
25 -1 14 -9 36 -18 50 -8 13 -15 27 -13 32 1 4 -7 12 -17 18 -11 5 -22 13 -25
18 -13 18 -73 56 -80 51 -5 -3 -9 0 -9 5 0 6 -11 11 -24 11 -14 0 -28 5 -31
10 -3 6 -19 10 -36 10 -16 0 -29 3 -29 8 0 6 -27 10 -82 13 -10 0 -18 3 -18 7
0 7 -25 12 -67 15 -7 0 -13 4 -13 9 0 5 -4 7 -9 3 -5 -3 -12 -1 -16 5 -4 6
-10 8 -15 5 -5 -3 -13 3 -19 12 -6 10 -11 14 -11 10 0 -4 -6 -2 -14 5 -8 7
-12 16 -9 21 2 4 -1 7 -7 7 -6 0 -8 5 -5 10 3 6 2 10 -3 10 -12 0 -11 34 2 43
8 5 6 10 -4 17 -11 7 -11 10 -2 10 7 0 11 4 8 9 -7 11 36 61 52 61 7 0 11 4 7
9 -3 6 4 8 15 6 11 -2 20 0 20 5 0 5 7 7 15 4 8 -4 22 -1 30 6 8 7 15 8 15 3
0 -5 9 -9 20 -9 11 0 20 3 20 6 0 9 32 6 47 -3 6 -4 15 -3 18 3 4 7 11 8 18 1
7 -5 27 -8 45 -7 18 1 35 -1 38 -5 2 -4 13 -6 24 -4 11 2 20 -1 20 -6 0 -6 5
-7 11 -3 6 3 15 0 20 -7 6 -10 9 -11 9 -1 0 19 20 14 20 -5 0 -14 2 -15 9 -4
6 9 11 10 15 3 4 -6 13 -9 20 -6 10 4 14 25 14 77 -1 81 -8 96 -44 92 -13 -1
-27 2 -30 7 -3 4 -10 6 -15 3 -5 -4 -9 0 -9 7 0 9 -3 9 -10 -2 -5 -8 -10 -10
-10 -4 0 6 -18 10 -42 10 -23 -1 -47 5 -54 11 -10 10 -13 9 -17 -5 -4 -15 -5
-15 -6 0 -1 14 -6 15 -31 8 -19 -5 -30 -5 -30 1 0 6 -6 6 -18 0 -10 -5 -24 -6
-32 -1 -7 4 -23 4 -35 0 -14 -6 -27 -4 -35 3 -10 9 -11 9 -5 -2z"/>
<path d="M11016 5241 c-3 -4 -20 -8 -38 -9 -31 -2 -49 -4 -125 -18 -18 -4 -33
-10 -33 -14 0 -8 -38 -23 -52 -21 -5 1 -8 -4 -8 -10 0 -5 -4 -8 -9 -4 -6 3
-13 0 -18 -7 -4 -7 -17 -18 -28 -25 -11 -6 -19 -16 -18 -21 2 -6 -6 -14 -17
-17 -11 -4 -18 -11 -15 -16 4 -5 1 -9 -6 -9 -7 0 -10 -3 -6 -6 3 -4 -1 -13 -9
-21 -8 -8 -12 -19 -9 -24 4 -5 1 -9 -5 -9 -7 0 -9 -7 -6 -16 3 -8 2 -12 -4 -9
-6 3 -11 0 -12 -7 -1 -14 -5 -30 -8 -38 -5 -14 -12 -48 -14 -78 -2 -18 -10
-40 -17 -49 -9 -11 -10 -14 -2 -9 9 5 12 -3 10 -28 -2 -20 -6 -38 -10 -42 -3
-4 -2 -15 4 -25 7 -13 6 -19 -1 -19 -6 0 -8 -5 -3 -12 7 -12 14 -82 16 -155 0
-19 4 -30 10 -26 6 4 8 0 4 -9 -3 -9 2 -26 10 -39 9 -12 12 -19 6 -16 -18 11
26 -72 65 -125 20 -26 42 -48 49 -48 6 0 19 -10 27 -22 9 -12 16 -19 16 -14 0
5 11 1 25 -8 14 -9 25 -14 25 -10 0 4 6 1 14 -5 7 -6 25 -12 40 -13 14 -1 26
-5 26 -8 0 -8 25 -10 183 -14 75 -1 137 1 137 5 0 5 12 4 26 -1 16 -7 23 -7
19 0 -3 6 -3 10 2 11 4 0 22 3 38 5 17 3 35 6 42 6 7 1 10 5 7 9 -2 4 9 10 24
14 60 13 195 146 177 175 -3 5 -1 10 4 10 6 0 11 7 11 15 0 8 4 15 9 15 5 0 7
10 3 22 -3 13 -1 19 5 15 6 -4 9 4 7 18 -1 14 2 27 7 31 5 3 7 9 4 14 -3 5 -1
18 5 29 7 13 7 22 0 26 -6 4 -7 12 -3 18 11 19 11 47 -1 47 -8 0 -8 2 0 8 6 4
11 30 11 57 0 28 -5 53 -11 57 -7 5 -7 8 2 8 10 0 10 5 2 20 -8 15 -8 20 2 20
8 0 9 3 3 8 -5 4 -12 18 -14 32 -2 14 -5 32 -6 40 -2 8 -4 23 -4 33 -1 10 -5
15 -11 12 -6 -3 -7 1 -4 10 4 8 1 21 -5 29 -6 7 -8 16 -4 19 3 4 1 7 -6 7 -7
0 -11 6 -8 13 3 8 -3 20 -13 27 -11 8 -17 17 -15 21 3 4 -2 10 -11 13 -8 3
-12 10 -9 16 3 5 1 10 -5 10 -17 0 -40 26 -32 35 4 5 2 5 -5 2 -6 -4 -18 0
-26 8 -9 8 -20 15 -26 15 -6 0 -11 5 -11 11 0 5 -4 7 -10 4 -5 -3 -10 -2 -10
4 0 6 -7 7 -17 4 -12 -5 -14 -3 -8 7 6 9 4 12 -6 8 -8 -3 -25 -1 -39 5 -14 5
-45 11 -69 13 -25 2 -48 10 -53 17 -4 6 -8 8 -8 2 0 -5 -16 -10 -35 -10 -19 0
-35 4 -35 8 0 4 -8 4 -17 -2 -10 -5 -26 -5 -40 0 -12 4 -25 5 -27 0z m176
-174 c20 -1 34 -5 32 -9 -3 -5 2 -8 11 -8 9 0 13 -5 10 -10 -4 -6 -3 -10 2 -9
22 4 43 -2 38 -11 -3 -5 1 -10 9 -10 8 0 28 -21 45 -46 17 -25 26 -42 19 -38
-10 6 -11 5 -1 -8 7 -8 10 -18 6 -21 -3 -4 -1 -7 5 -7 6 0 9 -7 6 -15 -4 -8
-1 -15 6 -15 6 0 8 -4 5 -10 -3 -5 -2 -26 4 -45 6 -23 6 -35 0 -35 -6 0 -7 -5
-3 -11 8 -13 12 -99 4 -99 -3 0 -5 -21 -6 -48 -2 -68 -7 -102 -17 -102 -4 0
-6 -4 -2 -9 3 -5 1 -12 -5 -16 -6 -4 -8 -10 -5 -15 3 -5 -3 -13 -12 -19 -10
-5 -15 -13 -11 -16 10 -11 -63 -77 -79 -71 -7 3 -12 0 -10 -7 1 -7 -6 -11 -15
-9 -9 1 -19 -2 -23 -7 -3 -6 -12 -8 -20 -4 -9 3 -15 -1 -15 -8 0 -11 -3 -11
-10 1 -5 8 -10 10 -10 4 0 -7 -13 -10 -31 -8 -22 3 -28 0 -23 -9 6 -9 4 -9 -7
-1 -8 6 -34 12 -59 13 -24 1 -51 7 -59 14 -12 10 -13 9 -6 -2 6 -11 5 -12 -6
-5 -8 4 -19 9 -26 10 -6 1 -22 11 -34 23 -13 12 -29 21 -36 21 -7 0 -13 7 -13
15 0 7 -8 19 -17 24 -10 6 -13 11 -8 11 6 0 4 4 -3 9 -7 4 -14 18 -15 29 -1
12 -5 22 -10 22 -4 0 -6 4 -2 9 3 5 1 12 -5 16 -6 4 -7 11 -4 17 4 6 0 14 -7
19 -11 7 -11 9 -1 9 9 0 10 5 3 18 -5 10 -8 27 -7 38 2 10 -1 27 -6 38 -7 13
-7 16 1 12 7 -5 9 11 5 50 -5 42 -2 59 7 65 11 7 11 9 1 9 -9 0 -10 5 -4 18 5
9 8 25 7 35 -2 9 1 17 6 17 6 0 8 4 5 9 -16 26 91 170 121 163 7 -2 16 4 20
13 5 13 7 14 14 3 6 -9 9 -10 9 -1 0 7 7 10 15 7 8 -4 15 -2 15 2 0 8 85 8
202 1z"/>
<path d="M2125 5218 c-20 -9 -20 -18 -19 -391 0 -211 4 -389 9 -396 5 -9 4
-12 -3 -8 -12 8 -9 -134 4 -154 4 -7 3 -9 -4 -5 -7 4 -10 -7 -9 -34 1 -23 7
-40 14 -40 6 0 13 -5 15 -11 2 -7 12 -7 31 0 15 6 27 7 27 2 0 -10 26 -9 36 2
4 3 15 2 25 -4 11 -6 19 -6 19 0 0 12 33 9 43 -4 5 -7 10 -7 15 0 8 12 35 13
43 2 3 -4 18 -3 32 2 15 6 27 7 27 2 0 -11 19 -9 39 3 7 5 16 5 20 -1 5 -8 19
-9 39 -3 17 6 38 5 47 -2 6 -4 17 -3 24 1 7 5 22 6 32 4 11 -3 19 0 19 6 0 7
5 9 10 6 6 -4 18 -1 27 7 12 9 15 9 9 1 -8 -14 6 -18 18 -6 4 4 19 9 34 11 15
2 30 9 34 15 6 9 8 9 8 -1 0 -10 4 -9 16 3 9 9 23 14 30 11 8 -3 14 1 14 10 0
8 4 13 9 10 5 -3 12 1 15 9 3 8 9 14 14 13 13 -5 84 70 77 81 -4 7 1 8 12 4
10 -3 15 -3 11 2 -4 4 0 22 9 39 10 17 18 34 19 39 1 4 2 8 4 10 2 3 10 39 12
60 1 9 5 17 9 17 3 0 6 10 5 23 -1 12 3 25 9 29 6 5 6 8 -2 8 -8 0 -9 9 -3 30
6 21 5 30 -3 30 -9 0 -9 2 -1 8 6 4 10 25 8 47 -1 22 -3 60 -4 85 -2 25 -7 50
-12 57 -5 7 -5 14 1 18 11 6 10 10 -22 73 -10 20 -12 32 -5 32 6 0 4 8 -5 18
-10 10 -17 24 -17 30 0 7 -4 12 -10 12 -5 0 -10 6 -10 14 0 8 -7 17 -16 20 -8
3 -12 10 -9 16 3 5 -1 10 -10 10 -9 0 -13 5 -10 10 3 6 -1 10 -9 10 -9 0 -16
5 -16 10 0 6 -7 10 -15 10 -8 0 -15 5 -15 10 0 6 -9 10 -20 10 -11 0 -20 5
-20 10 0 6 -7 10 -15 10 -8 0 -15 5 -15 10 0 7 -7 7 -21 -1 -15 -8 -19 -8 -15
0 4 7 -1 11 -13 11 -12 0 -21 4 -21 9 0 11 -19 9 -39 -3 -10 -6 -12 -5 -7 2 7
12 -16 17 -58 12 -12 -1 -16 2 -11 10 6 9 3 10 -10 2 -11 -5 -30 -6 -47 -2
-15 5 -28 5 -28 1 0 -3 -9 -7 -20 -7 -11 0 -20 4 -20 9 0 5 -7 4 -15 -3 -12
-10 -15 -10 -15 0 0 9 -4 9 -12 2 -7 -5 -22 -6 -33 -2 -11 4 -28 3 -37 -2 -12
-6 -18 -5 -18 2 0 6 -5 8 -12 4 -16 -10 -78 -12 -78 -2 0 7 -34 3 -50 -7 -6
-3 -10 -2 -10 3 0 10 -30 9 -47 -1 -6 -4 -13 -3 -15 2 -2 5 -12 4 -23 -1z
m285 -160 c0 -4 12 -3 27 3 20 7 29 7 31 -1 3 -8 8 -8 18 1 11 9 14 9 14 0 0
-9 5 -9 21 0 13 7 24 7 28 2 3 -6 21 -10 39 -10 51 -2 54 -2 46 -15 -5 -9 -3
-9 9 1 14 11 18 11 23 -2 3 -9 12 -13 20 -10 8 3 14 0 14 -7 0 -6 4 -9 9 -5 5
3 18 -6 29 -20 11 -13 21 -22 24 -20 3 3 11 -7 19 -23 8 -15 18 -30 22 -33 5
-4 10 -18 10 -33 1 -14 6 -26 11 -26 4 0 6 -9 3 -20 -3 -11 -1 -23 5 -26 5 -3
7 -12 4 -20 -3 -7 -1 -16 5 -20 7 -4 6 -10 -1 -19 -7 -8 -7 -15 -1 -19 7 -5 8
-41 1 -41 -1 0 -3 -8 -5 -18 -2 -9 0 -15 4 -13 15 10 -4 -101 -21 -121 -7 -9
-7 -13 1 -13 6 0 0 -18 -13 -39 -14 -21 -22 -42 -18 -47 4 -4 1 -4 -5 0 -7 4
-13 3 -13 -3 0 -14 -41 -51 -50 -46 -5 3 -10 -2 -14 -10 -3 -8 -14 -15 -24
-15 -10 0 -22 -4 -28 -10 -5 -5 -27 -10 -49 -11 -22 -1 -48 -6 -57 -11 -10 -5
-18 -5 -18 0 0 5 -10 8 -22 6 -13 -1 -23 -3 -23 -4 0 -1 -8 -3 -17 -5 -10 -2
-18 1 -18 7 0 7 -5 7 -13 -1 -8 -6 -17 -8 -21 -4 -10 10 -37 13 -31 3 3 -5 -4
-8 -15 -7 -11 1 -20 5 -20 10 0 5 -6 4 -14 -2 -18 -15 -25 -4 -20 32 1 15 -1
25 -7 22 -5 -3 -6 1 -2 11 9 24 10 76 2 107 -5 16 -4 25 2 22 10 -7 7 24 -4
43 -6 8 -2 12 10 12 10 0 14 3 8 8 -15 10 -17 62 -3 62 7 0 3 7 -8 15 -10 8
-14 15 -8 15 11 0 10 48 -1 78 -3 7 0 10 5 7 10 -6 4 61 -8 79 -3 5 0 6 6 2
13 -8 12 20 -1 42 -6 8 -2 12 10 12 10 0 14 3 8 8 -16 11 -18 65 -2 56 6 -4 3
2 -7 14 -11 12 -15 22 -9 22 6 0 8 12 5 27 -4 23 -2 25 17 20 11 -3 21 -2 21
2 0 4 14 7 30 6 17 0 30 -3 30 -7z"/>
<path d="M3316 5218 c3 -4 0 -8 -6 -8 -6 0 -8 -12 -5 -30 3 -18 1 -30 -5 -30
-7 0 -8 -5 -3 -12 10 -16 13 -69 3 -63 -3 2 -7 -2 -7 -10 0 -8 4 -12 9 -9 13
8 10 -10 -4 -25 -7 -8 -8 -11 -2 -8 12 7 12 -152 -1 -172 -5 -9 -4 -12 3 -7
12 7 11 -32 -3 -53 -5 -9 -4 -12 2 -8 6 4 9 -18 9 -54 0 -32 -4 -59 -9 -59 -4
0 -5 -6 0 -12 10 -16 13 -69 3 -63 -3 2 -7 -2 -7 -10 0 -8 4 -12 9 -9 13 8 10
-10 -4 -25 -7 -8 -8 -11 -2 -8 7 4 10 -14 10 -54 0 -32 -4 -59 -9 -59 -4 0 -5
-6 0 -12 10 -16 13 -69 3 -63 -3 2 -7 -2 -7 -10 0 -8 3 -12 7 -10 4 2 7 -11 7
-30 0 -19 -4 -35 -9 -35 -4 0 -3 -9 4 -20 11 -17 10 -22 -2 -30 -9 -6 -10 -10
-3 -10 7 0 10 -7 6 -17 -5 -11 -3 -14 6 -8 8 4 16 3 20 -4 6 -8 15 -9 34 -2
15 6 27 7 27 2 0 -10 26 -9 36 2 4 3 15 2 25 -3 12 -7 19 -6 23 3 5 9 7 9 12
0 4 -10 8 -10 19 0 7 7 11 15 9 18 -2 4 -4 236 -4 517 l-1 511 -23 -8 c-12 -5
-29 -5 -36 -1 -8 5 -19 6 -25 2 -16 -11 -35 -11 -35 -1 0 6 -8 5 -20 -1 -11
-6 -20 -7 -20 -2 0 4 -9 8 -19 8 -11 0 -17 -4 -15 -8z"/>
<path d="M4701 5222 c-1 -7 -6 -10 -13 -6 -8 5 -9 2 -5 -9 4 -10 1 -17 -6 -17
-8 0 -8 -3 -2 -8 15 -10 16 -74 1 -65 -8 5 -8 3 1 -8 12 -14 12 -17 14 -46 0
-10 3 -13 5 -6 4 8 13 9 29 3 12 -5 25 -6 28 -4 9 9 57 12 57 3 0 -5 12 -4 27
2 19 7 29 7 31 0 3 -8 10 -8 24 0 16 8 19 8 13 -1 -6 -9 -2 -9 16 0 16 9 24
10 27 2 2 -8 11 -8 28 -2 19 8 23 7 18 -3 -5 -8 -2 -8 9 2 19 15 18 19 19 -80
1 -31 -2 -62 -6 -68 -4 -6 -2 -11 5 -11 8 0 9 -3 0 -13 -6 -8 -8 -16 -6 -19
11 -11 14 -48 4 -53 -5 -4 -6 -13 0 -22 4 -9 5 -31 1 -49 -4 -19 -5 -34 -1
-34 3 0 6 -18 6 -39 1 -22 -3 -37 -7 -35 -4 3 -4 -5 1 -18 4 -13 5 -32 1 -43
-4 -11 -4 -29 0 -40 4 -11 4 -30 -1 -42 -5 -13 -4 -23 0 -23 5 0 8 -11 7 -25
0 -14 -4 -25 -8 -25 -4 0 -5 -7 -2 -15 9 -23 10 -135 1 -135 -5 0 -5 -5 -1
-12 5 -7 7 -25 6 -41 -3 -39 5 -49 29 -37 11 7 19 7 19 1 0 -10 19 -9 38 2 7
5 12 3 12 -4 0 -9 3 -9 14 0 11 9 15 9 19 -1 4 -11 6 -10 6 0 1 8 6 10 13 6
17 -11 48 -12 42 -2 -3 4 -1 8 4 8 6 0 9 85 8 205 -1 131 3 205 9 205 7 0 7 3
0 8 -5 4 -10 33 -10 65 0 31 5 57 10 57 6 0 4 4 -3 9 -8 4 -14 12 -14 16 0 4
6 12 14 16 11 7 11 9 -1 9 -10 0 -11 3 -2 14 9 11 9 15 -1 20 -10 5 -10 7 0
12 6 3 9 11 5 17 -11 18 -9 127 2 127 6 0 4 4 -3 9 -8 4 -14 12 -14 16 0 4 6
12 14 16 11 7 11 9 -1 9 -11 0 -11 3 0 17 10 11 10 14 2 9 -7 -4 -13 -3 -13 2
0 6 7 12 15 16 8 3 15 0 15 -6 0 -6 6 -5 17 3 15 12 16 12 8 -1 -8 -13 -7 -13
9 -1 14 12 19 12 26 2 6 -11 9 -11 13 0 5 12 6 12 6 0 1 -11 4 -11 18 0 15 12
16 12 8 -1 -8 -13 -7 -13 9 -1 14 12 19 12 26 2 5 -8 13 -10 21 -5 20 12 59
14 59 3 0 -6 6 -6 18 0 11 6 24 6 34 0 11 -6 19 -6 23 1 4 6 10 8 15 5 10 -6
8 15 -4 34 -6 10 -5 12 2 7 7 -4 12 -1 12 8 0 9 -6 16 -12 16 -9 0 -9 3 -3 8
8 5 13 72 6 90 -1 1 -10 -2 -21 -8 -14 -8 -20 -8 -20 0 0 6 -5 8 -12 3 -19
-11 -38 -12 -38 -2 0 6 -8 5 -20 -1 -14 -8 -20 -8 -20 0 0 6 -4 9 -9 5 -16 -9
-71 -13 -71 -5 0 10 -20 8 -39 -4 -8 -5 -16 -4 -21 4 -6 10 -9 9 -13 -1 -4
-10 -6 -10 -6 -2 -1 9 -8 10 -24 4 -13 -5 -30 -5 -37 -1 -8 5 -19 6 -25 2 -15
-10 -35 -11 -35 -2 0 8 -43 5 -59 -5 -6 -3 -11 -1 -11 5 0 6 -5 8 -12 4 -16
-10 -78 -12 -78 -2 0 7 -34 3 -50 -7 -6 -3 -10 -1 -10 6 0 8 -4 8 -15 -1 -12
-10 -15 -10 -15 0 0 10 -3 10 -15 0 -10 -8 -15 -9 -15 -1 0 7 -8 8 -23 2 -13
-5 -30 -5 -37 -1 -8 5 -19 6 -25 2 -16 -11 -35 -11 -35 -1 0 6 -8 6 -19 -1
-14 -7 -21 -6 -24 3 -4 9 -6 9 -6 -1z"/>
<path d="M5807 5223 c-4 -6 -18 -8 -32 -5 -24 4 -31 -5 -25 -33 6 -28 4 -115
-3 -115 -5 0 -5 -5 -1 -12 10 -16 11 -68 1 -68 -4 0 -3 -10 4 -21 8 -17 8 -20
-1 -14 -10 6 -10 3 -2 -11 6 -10 7 -27 2 -40 -5 -12 -6 -24 -3 -28 9 -9 9 -96
0 -96 -5 0 -5 -5 -1 -12 11 -17 11 -58 1 -58 -4 0 -5 -5 -1 -11 10 -16 11
-129 1 -129 -4 0 -3 -10 4 -21 8 -16 8 -20 -1 -14 -9 6 -9 3 -2 -12 7 -11 7
-25 1 -35 -6 -10 -6 -19 0 -23 7 -3 7 -15 1 -29 -5 -13 -6 -27 -3 -30 10 -9
10 -56 0 -56 -4 0 -5 -5 -1 -12 10 -16 11 -68 1 -68 -4 0 -3 -10 4 -21 8 -16
8 -20 -1 -14 -9 5 -9 3 -2 -11 5 -11 7 -25 4 -33 -3 -10 1 -12 17 -8 11 3 21
1 21 -3 0 -10 20 -8 39 4 8 5 16 4 20 -3 6 -8 15 -9 34 -2 18 7 27 7 31 -2 5
-9 7 -9 12 1 3 6 9 10 14 7 4 -3 10 2 14 10 3 8 0 15 -7 15 -7 0 -8 3 -2 8 12
8 15 52 4 52 -4 0 -5 12 -1 28 9 35 8 64 -1 80 -5 7 -3 12 5 12 9 0 9 3 -2 10
-8 5 -10 10 -4 10 12 0 10 52 -2 72 -4 6 -2 8 4 4 11 -7 11 39 -1 50 -3 4 1
13 9 21 18 18 134 26 134 10 0 -8 3 -8 10 -1 15 15 70 5 70 -12 0 -8 5 -14 11
-14 5 0 8 -4 5 -9 -3 -5 1 -14 9 -21 8 -7 15 -19 15 -26 0 -8 5 -14 10 -14 6
0 10 -7 10 -15 0 -8 4 -15 8 -15 9 0 36 -60 33 -74 -1 -5 5 -6 14 -2 9 3 13 2
10 -3 -6 -12 15 -61 27 -61 4 0 8 -7 8 -15 0 -8 5 -15 11 -15 5 0 7 -4 4 -10
-3 -5 -1 -10 4 -10 6 0 10 -6 8 -12 -1 -7 4 -12 11 -10 8 1 11 -2 8 -7 -4 -5
-2 -12 4 -16 6 -4 8 -10 5 -15 -3 -4 9 -10 26 -12 16 -3 32 -1 35 4 3 5 12 4
19 -2 10 -8 14 -7 18 2 4 11 6 11 6 0 1 -10 6 -10 21 -2 15 8 20 8 20 -2 0 -9
3 -9 10 2 5 8 10 10 10 5 0 -18 53 -10 56 8 1 10 -1 17 -5 17 -9 0 -29 40 -27
53 0 5 -7 13 -17 18 -9 6 -15 14 -12 19 3 4 -2 10 -10 14 -9 3 -12 12 -8 22 4
11 2 15 -4 11 -10 -7 -28 19 -25 36 1 4 -2 7 -8 7 -5 0 -16 15 -25 33 -14 32
-35 67 -45 77 -3 3 -12 19 -20 35 -8 17 -20 35 -27 40 -13 11 1 29 25 31 38 3
43 5 38 13 -4 5 2 8 11 7 10 -2 29 8 43 21 13 12 28 23 32 23 5 0 8 7 8 15 0
9 7 18 15 21 8 4 12 10 9 15 -3 5 -1 9 3 9 5 0 10 12 11 27 1 15 6 29 10 32
10 8 9 53 -2 70 -6 9 -5 12 2 7 7 -4 10 12 10 49 -1 31 -6 59 -11 62 -5 3 -5
8 1 12 6 4 3 20 -9 45 -10 22 -19 43 -19 47 0 16 -66 79 -102 98 -21 10 -35
15 -32 10 8 -14 -3 -10 -20 7 -12 12 -16 12 -16 2 0 -11 -2 -11 -9 0 -4 7 -19
14 -32 14 -13 1 -29 5 -36 10 -6 5 -14 5 -17 -1 -4 -6 -15 -7 -29 -2 -14 5
-30 5 -40 0 -11 -7 -17 -6 -17 1 0 6 -5 8 -12 4 -16 -10 -78 -12 -78 -2 0 7
-34 3 -50 -7 -6 -3 -10 -1 -10 6 0 8 -4 8 -15 -1 -12 -10 -15 -10 -15 0 0 10
-3 10 -15 0 -10 -8 -15 -9 -15 -2 0 8 -8 8 -22 3 -13 -4 -35 -5 -50 0 -16 4
-28 4 -28 0 0 -3 -9 -7 -20 -7 -11 0 -20 4 -20 9 0 5 -6 4 -14 -2 -11 -9 -15
-9 -18 1 -3 8 -6 9 -11 1z m293 -163 c3 -1 10 -1 15 0 45 9 55 9 55 -2 0 -8 3
-9 8 -3 8 12 72 15 72 4 0 -4 9 -6 20 -4 11 2 26 -2 34 -10 7 -8 16 -11 20 -8
3 3 8 -2 12 -11 3 -9 13 -16 22 -16 8 0 12 -3 9 -7 -4 -3 1 -15 10 -26 10 -11
12 -17 6 -13 -7 4 -13 2 -13 -3 0 -6 6 -11 13 -11 8 0 7 -4 -3 -10 -8 -5 -10
-10 -5 -10 12 0 17 -39 7 -55 -4 -5 -7 -23 -7 -40 0 -31 -58 -105 -72 -92 -3
4 -12 2 -20 -4 -7 -6 -13 -9 -13 -5 0 3 -11 1 -25 -4 -15 -6 -26 -6 -30 0 -4
6 -14 7 -23 2 -23 -10 -84 -9 -101 2 -9 6 -12 5 -7 -2 5 -9 -31 -10 -54 -2 -3
2 -9 1 -15 0 -47 -10 -81 -1 -55 15 8 5 6 13 -6 26 -9 10 -13 19 -8 19 13 0
12 73 -1 82 -7 5 -7 8 0 8 11 0 13 119 2 136 -3 6 0 19 7 30 11 16 25 19 77
17 35 0 66 -2 69 -3z"/>
<path d="M6855 5214 c-4 -10 -7 -23 -6 -29 9 -32 6 -115 -3 -115 -6 0 -5 -4 3
-9 9 -6 10 -11 2 -15 -6 -4 -8 -12 -5 -18 9 -15 9 -232 0 -247 -4 -6 -2 -11 3
-11 13 0 10 -22 -4 -32 -7 -5 -7 -8 0 -8 11 0 12 -50 1 -68 -4 -7 -3 -12 1
-12 12 0 10 -53 -2 -62 -6 -5 -5 -8 4 -8 10 0 11 -3 2 -13 -6 -8 -8 -17 -4
-21 8 -8 6 -253 -2 -266 -4 -6 -1 -10 5 -10 7 0 8 -6 0 -19 -7 -14 -6 -21 3
-24 9 -4 9 -8 -2 -15 -10 -8 -8 -13 10 -26 13 -8 25 -12 29 -8 7 9 33 9 41 -1
3 -4 18 -3 32 2 15 6 27 7 27 2 0 -10 26 -9 36 1 3 4 12 4 19 2 9 -4 12 6 11
35 -1 23 3 41 8 41 6 0 5 4 -2 9 -8 4 -14 12 -14 16 0 4 6 12 14 16 7 5 8 9 2
9 -6 0 -11 7 -11 15 0 8 5 15 11 15 6 0 5 4 -2 9 -8 4 -14 12 -14 16 0 4 6 12
14 16 7 5 8 9 2 9 -6 0 -11 7 -11 15 0 8 5 15 11 15 6 0 5 4 -2 9 -8 4 -14 12
-14 16 0 4 6 12 14 16 11 7 11 9 -1 9 -10 0 -11 3 -2 13 6 8 8 17 4 20 -10 11
-9 117 2 117 7 0 7 3 0 8 -15 10 -18 42 -4 42 8 0 8 4 -1 15 -7 9 -9 22 -5 32
5 10 7 23 5 28 -8 28 -4 115 5 115 7 0 7 3 0 8 -15 10 -18 42 -4 42 8 0 8 4
-1 15 -7 9 -9 22 -5 32 5 10 7 23 5 28 -8 28 -4 115 5 115 7 0 7 3 0 8 -15 10
-18 42 -4 42 9 0 9 3 0 14 -7 8 -11 20 -10 28 4 33 -1 39 -21 28 -15 -8 -20
-8 -20 1 0 8 -4 8 -15 -1 -12 -10 -15 -10 -15 0 0 10 -3 10 -15 0 -11 -9 -15
-9 -15 -1 0 7 -4 10 -9 6 -18 -11 -70 -12 -74 -2 -2 6 -7 2 -12 -9z"/>
<path d="M7370 5220 c-18 -11 -23 -80 -7 -80 8 0 9 -3 1 -8 -7 -5 -11 -152
-10 -480 0 -386 2 -472 13 -468 7 3 13 1 13 -5 0 -6 6 -7 16 -1 9 5 31 6 50 2
20 -5 37 -3 43 3 6 6 11 7 11 2 0 -11 51 -12 68 -1 7 4 12 4 12 -1 0 -10 52
-9 68 1 7 4 12 3 12 -3 0 -7 8 -7 25 -1 14 5 25 6 25 1 0 -10 26 -9 36 2 4 3
15 2 25 -4 11 -5 19 -6 19 -1 0 4 9 8 20 8 11 0 20 -3 20 -7 0 -9 27 -6 36 4
4 3 14 2 23 -3 10 -5 23 -5 31 0 9 5 20 4 29 -3 12 -9 13 -9 7 1 -5 8 1 12 23
12 36 0 123 36 134 56 4 8 15 14 24 14 9 0 13 6 10 14 -4 10 -1 13 9 9 10 -4
12 0 8 11 -4 10 -1 16 7 16 7 0 9 3 6 7 -4 3 -2 12 4 19 6 8 9 21 5 29 -3 9
-2 13 4 10 5 -3 9 3 9 12 0 10 2 39 3 66 2 26 0 47 -4 47 -4 0 -3 11 2 24 6
18 5 28 -5 36 -7 6 -12 20 -10 30 2 10 -3 21 -12 24 -9 4 -13 9 -10 12 3 3 -5
16 -18 29 -14 12 -22 25 -18 28 3 4 -3 7 -15 7 -12 0 -22 4 -22 10 0 5 -5 9
-11 7 -6 -1 -13 6 -14 16 -2 9 3 17 10 17 7 0 16 7 19 16 3 8 10 13 15 10 5
-3 12 6 15 19 4 14 11 23 16 20 6 -3 7 1 4 9 -3 9 -2 16 4 16 6 0 9 8 7 18 -1
9 0 22 4 27 10 17 10 35 0 41 -5 3 -7 9 -4 14 12 20 13 70 2 70 -7 0 -6 4 3
10 8 5 10 10 4 10 -6 0 -11 6 -12 13 -7 80 -100 170 -182 175 -19 2 -37 7 -38
13 -3 6 -9 6 -18 -2 -11 -9 -14 -9 -14 1 0 9 -4 9 -12 2 -7 -5 -22 -6 -33 -2
-11 4 -28 3 -37 -2 -12 -6 -18 -5 -18 2 0 6 -5 8 -12 4 -17 -10 -78 -12 -78
-2 0 11 -23 6 -32 -7 -5 -6 -8 -5 -8 3 0 7 -4 11 -9 7 -16 -9 -71 -13 -71 -5
0 10 -20 8 -39 -4 -8 -5 -16 -4 -21 4 -6 10 -9 9 -13 -1 -4 -10 -6 -10 -6 -2
-1 9 -8 10 -24 4 -13 -5 -30 -5 -37 -1 -8 5 -19 5 -25 0 -15 -12 -27 -13 -34
-1 -4 6 -12 7 -21 1z m320 -149 c0 6 8 5 20 -1 11 -6 20 -7 20 -2 0 5 23 6 50
2 29 -4 50 -2 50 3 0 5 7 4 15 -3 8 -6 19 -9 26 -5 6 4 14 4 18 -1 3 -5 18
-17 34 -27 15 -10 27 -24 27 -32 0 -8 4 -15 8 -15 12 0 10 -54 -2 -62 -7 -5
-7 -8 -1 -8 6 0 12 -11 13 -25 1 -14 -3 -25 -9 -25 -5 0 -8 -4 -4 -10 7 -12
-52 -69 -74 -71 -9 -1 -58 -3 -109 -4 -50 -1 -95 -5 -99 -8 -3 -4 -12 -2 -20
4 -10 9 -17 8 -28 -1 -12 -10 -15 -10 -15 0 0 7 -7 10 -17 5 -36 -14 -38 -10
-39 71 0 44 -3 85 -7 90 -3 6 -2 15 2 22 4 7 6 32 4 55 l-3 44 36 1 c20 1 39
3 41 6 3 2 18 0 34 -4 18 -5 29 -5 29 1z m5 -431 c3 -5 13 -6 22 -3 12 5 14 3
8 -8 -7 -11 -6 -12 7 -2 8 7 18 10 21 6 4 -3 14 0 24 8 9 8 14 9 10 3 -4 -7
12 -11 51 -10 36 1 66 -4 82 -14 13 -8 25 -14 27 -12 9 7 23 1 18 -8 -3 -5 -2
-10 4 -10 10 0 26 -53 24 -82 0 -10 4 -18 10 -18 5 0 3 -8 -4 -17 -12 -15 -12
-16 1 -8 13 8 13 7 1 -8 -8 -10 -11 -20 -8 -24 4 -3 1 -15 -5 -27 -7 -11 -11
-24 -10 -28 1 -5 -3 -8 -9 -8 -6 0 -17 -7 -26 -15 -8 -8 -19 -13 -24 -10 -5 4
-9 2 -9 -3 0 -5 -74 -9 -169 -9 -93 -1 -175 -4 -182 -8 -8 -5 -10 -4 -5 3 4 7
1 12 -6 12 -8 0 -9 3 -3 8 12 9 14 234 1 243 -4 4 0 15 11 26 14 14 31 19 61
17 23 -1 45 2 48 7 7 12 21 11 29 -1z"/>
<path d="M8425 5209 c-4 -11 -4 -23 -1 -26 3 -4 1 -12 -5 -19 -7 -8 -7 -14 1
-19 8 -5 8 -11 -1 -21 -7 -9 -8 -14 -1 -14 11 0 10 -40 -3 -60 -5 -8 -4 -11 3
-6 7 4 10 -1 9 -14 -1 -11 -5 -20 -10 -20 -4 0 -5 -6 0 -12 12 -21 12 -38 0
-38 -8 0 -8 -3 -2 -8 15 -11 17 -30 4 -54 -7 -13 -7 -18 -1 -14 6 4 10 -2 9
-14 -1 -11 -5 -20 -10 -20 -4 0 -5 -6 0 -12 12 -21 12 -38 0 -38 -8 0 -8 -3
-2 -8 15 -11 17 -30 4 -54 -7 -13 -7 -18 -1 -14 6 4 10 -2 9 -14 -1 -11 -5
-20 -10 -20 -4 0 -5 -6 0 -12 11 -19 10 -72 -2 -80 -6 -5 -7 -8 0 -8 6 0 10
-26 10 -60 -1 -33 2 -60 6 -60 4 0 5 -10 1 -22 -3 -12 -1 -19 4 -15 5 3 10 -8
11 -25 0 -17 5 -33 9 -37 5 -3 10 -12 12 -20 6 -26 72 -112 72 -94 0 4 6 1 13
-8 7 -8 27 -22 45 -30 17 -7 32 -17 32 -20 0 -6 10 -8 55 -11 14 -1 25 -6 25
-11 0 -5 9 -7 20 -4 10 3 21 0 24 -7 3 -7 5 -7 5 2 1 8 6 10 14 5 15 -10 267
-12 267 -2 0 4 11 6 24 3 14 -2 28 0 31 6 3 5 19 10 36 10 16 0 29 5 29 11 0
5 5 7 10 4 6 -3 13 1 16 10 4 9 13 14 20 11 7 -3 23 6 36 19 13 14 29 25 37
25 8 0 11 3 8 7 -4 3 1 12 11 20 11 10 12 12 2 8 -8 -4 -5 3 8 14 12 11 21 26
20 33 -2 7 2 12 7 11 6 -1 11 8 12 20 4 36 9 56 16 63 4 4 1 14 -6 22 -10 13
-9 14 1 8 11 -6 13 0 11 26 -2 18 0 39 5 46 4 7 2 12 -6 12 -9 0 -9 3 2 10 13
9 13 11 0 20 -8 5 -10 10 -4 10 8 0 9 13 4 40 -5 26 -3 41 4 44 6 3 5 5 -3 5
-11 1 -11 4 -1 16 10 12 10 15 -1 15 -11 0 -11 2 1 10 13 9 13 11 0 20 -8 5
-10 10 -5 10 10 0 11 280 1 306 -3 7 0 15 7 18 8 3 8 5 -2 5 -11 1 -11 4 -1
16 10 12 10 15 -1 15 -11 0 -11 2 1 10 13 9 13 11 0 20 -8 5 -10 10 -3 10 10
0 9 19 -3 58 -2 8 -9 10 -16 5 -19 -11 -38 -12 -38 -2 0 6 -8 5 -20 -1 -13 -7
-20 -7 -20 -1 0 7 -8 7 -23 2 -13 -5 -30 -5 -37 -1 -21 13 -47 -6 -45 -32 1
-13 -3 -29 -9 -37 -8 -11 -8 -13 1 -8 14 9 13 -75 -2 -85 -7 -5 -7 -8 0 -8 12
0 14 -69 2 -87 -4 -6 -3 -14 2 -18 6 -3 7 -13 4 -22 -5 -12 -3 -14 8 -8 11 7
12 6 3 -6 -6 -8 -10 -43 -9 -79 1 -36 -3 -71 -9 -79 -8 -11 -8 -13 1 -8 14 9
13 -75 -2 -85 -6 -5 -6 -8 1 -8 7 0 11 -16 11 -39 -1 -22 -5 -37 -10 -34 -5 3
-4 -4 2 -16 9 -16 9 -21 -1 -21 -9 0 -9 -3 2 -10 12 -8 12 -12 2 -18 -7 -5
-12 -13 -11 -18 4 -25 -2 -45 -13 -38 -6 4 -8 3 -4 -4 9 -15 -37 -79 -53 -74
-8 3 -11 0 -8 -5 7 -12 -40 -36 -54 -27 -5 3 -12 -2 -15 -11 -6 -13 -8 -14
-15 -3 -5 7 -9 8 -9 2 0 -5 -13 -9 -30 -8 -17 1 -30 -3 -30 -9 0 -8 -3 -9 -8
-2 -4 6 -31 12 -61 13 -30 1 -60 7 -67 13 -8 6 -20 9 -28 6 -8 -3 -22 5 -32
19 -11 13 -25 24 -33 24 -8 0 -11 3 -8 6 4 4 -2 15 -14 24 -11 10 -21 32 -22
49 -1 17 -5 31 -9 31 -4 0 -7 17 -7 38 -1 20 -2 53 -3 72 -1 20 1 41 6 48 4 7
2 12 -3 12 -6 0 -11 5 -11 11 0 5 6 7 13 3 9 -6 9 -4 -1 8 -10 12 -10 18 -1
23 8 6 7 10 -2 16 -11 7 -11 9 -1 9 7 0 10 5 6 11 -9 15 -9 93 0 107 4 7 2 12
-3 12 -6 0 -11 5 -11 11 0 5 6 7 13 3 9 -5 9 -4 0 6 -9 10 -10 17 -2 27 9 10
8 13 -2 13 -12 0 -12 2 0 9 9 6 10 10 2 16 -9 5 -9 10 0 21 8 10 8 14 0 14 -6
0 -11 5 -11 11 0 5 6 7 13 3 9 -6 9 -4 -1 8 -10 12 -10 18 -1 23 8 6 7 10 -2
16 -11 7 -11 9 -1 9 8 0 10 5 6 12 -4 6 -7 41 -6 76 2 73 -3 88 -24 71 -10 -8
-14 -8 -14 0 0 7 -8 8 -25 1 -17 -6 -25 -6 -25 1 0 6 -5 7 -12 3 -15 -9 -58
-10 -81 -1 -11 4 -18 -1 -22 -14z"/>
<path d="M9575 5222 c-6 -4 -10 -16 -10 -27 1 -11 -4 -23 -10 -27 -7 -6 -6
-10 1 -15 13 -9 13 -51 1 -70 -5 -8 -3 -13 3 -13 6 0 8 -5 4 -12 -5 -7 -3 -8
7 -2 20 12 39 14 39 3 0 -5 11 -4 25 1 14 5 25 6 25 2 0 -9 47 -7 73 3 10 4
17 3 17 -4 0 -9 5 -9 21 0 17 9 20 8 14 -2 -5 -8 -4 -10 4 -5 18 11 61 15 61
5 0 -5 12 -4 27 2 15 6 24 7 20 3 -4 -4 -2 -13 4 -20 7 -8 7 -14 0 -18 -6 -4
-7 -15 -1 -30 4 -12 4 -29 0 -36 -5 -8 -5 -21 0 -31 5 -9 6 -19 3 -23 -10 -9
-11 -46 -2 -46 4 0 4 -13 -1 -30 -6 -21 -5 -30 3 -30 8 0 8 -3 0 -11 -7 -7 -8
-20 -3 -34 4 -12 4 -28 0 -35 -5 -8 -5 -21 0 -31 5 -9 6 -19 3 -23 -10 -9 -11
-46 -2 -46 4 0 4 -12 0 -28 -5 -15 -4 -37 0 -50 5 -13 5 -21 0 -18 -4 3 -8 -8
-7 -24 1 -17 4 -30 8 -30 4 0 3 -12 -3 -27 -7 -19 -6 -28 2 -33 8 -6 7 -9 -2
-13 -10 -4 -10 -6 -2 -6 9 -1 10 -8 2 -28 -7 -20 -7 -29 2 -32 8 -2 7 -6 -2
-12 -10 -6 -10 -9 -2 -9 9 0 10 -7 2 -27 -7 -19 -6 -28 2 -33 8 -6 7 -9 -2
-13 -11 -4 -11 -6 -1 -6 10 -1 10 -6 2 -21 -10 -18 -7 -24 13 -21 4 0 7 -4 7
-9 0 -7 7 -7 21 1 12 6 24 7 28 3 8 -12 41 -14 41 -4 0 5 12 5 28 1 15 -5 38
-4 51 0 20 8 22 11 10 26 -10 12 -10 14 -1 9 8 -5 12 1 12 18 0 14 -6 26 -12
26 -10 0 -10 2 -1 8 7 5 10 22 7 45 -3 27 -1 36 7 31 8 -4 8 -1 2 12 -11 22
-11 54 0 71 4 6 3 14 -2 18 -5 3 -8 15 -6 27 3 12 -1 26 -8 30 -9 6 -9 8 0 8
9 0 11 12 8 41 -4 28 -2 38 6 34 8 -5 8 -2 1 11 -5 11 -8 28 -6 39 1 11 -2 23
-9 27 -8 5 -8 8 -1 8 14 0 14 142 -1 152 -6 5 -6 8 2 8 9 0 11 12 8 41 -4 28
-2 38 6 34 8 -5 8 -2 1 11 -5 11 -8 28 -6 39 1 10 -3 26 -9 34 -9 12 -9 13 0
8 9 -6 11 2 9 27 -2 33 16 57 28 37 6 -8 53 -6 79 4 10 4 17 3 17 -4 0 -9 5
-9 21 0 17 9 20 8 14 -2 -5 -8 -4 -10 4 -5 18 11 61 15 61 5 0 -5 12 -4 27 2
20 7 28 6 35 -3 6 -10 8 -10 8 1 0 10 3 11 14 2 10 -8 16 -9 21 -2 11 19 14
51 4 51 -6 0 -7 5 -3 12 11 17 12 68 2 68 -4 0 -7 3 -7 8 5 27 -1 34 -18 21
-14 -12 -15 -12 -9 -1 7 11 4 12 -13 3 -16 -9 -21 -9 -21 0 0 8 -4 8 -15 -1
-12 -10 -15 -10 -15 0 0 10 -3 10 -15 0 -10 -8 -15 -9 -15 -2 0 8 -8 8 -22 3
-13 -4 -35 -5 -50 0 -16 4 -28 4 -28 0 0 -3 -9 -7 -20 -7 -11 0 -20 4 -20 9 0
5 -7 4 -15 -3 -12 -10 -15 -10 -15 0 0 9 -4 9 -12 2 -7 -5 -22 -6 -33 -2 -11
4 -28 3 -37 -2 -12 -6 -18 -5 -18 2 0 6 -5 8 -12 4 -16 -10 -78 -12 -78 -2 0
7 -34 3 -50 -7 -6 -3 -10 -1 -10 6 0 8 -4 8 -15 -1 -12 -10 -15 -10 -15 0 0
10 -3 10 -15 0 -10 -8 -15 -9 -15 -2 0 8 -8 8 -22 3 -13 -4 -35 -5 -50 0 -16
4 -28 4 -28 0 0 -3 -9 -7 -20 -7 -11 0 -20 4 -20 9 0 5 -7 4 -15 -3 -11 -9
-15 -9 -15 -1 0 7 -5 9 -12 4 -16 -9 -51 -10 -58 -1 -3 4 -10 4 -15 0z"/>
<path d="M11897 5224 c-4 -4 -22 -7 -41 -6 -29 1 -33 -2 -32 -21 1 -12 -1 -32
-6 -45 -4 -13 -4 -21 0 -18 4 2 8 -15 8 -39 0 -25 -4 -41 -10 -38 -5 4 -6 1 0
-8 12 -19 12 -33 -1 -41 -7 -5 -7 -11 0 -15 15 -12 19 -57 4 -48 -8 6 -10 4
-4 -5 12 -19 13 -130 2 -123 -6 4 -7 1 -1 -8 11 -19 12 -71 0 -86 -4 -7 -5
-13 0 -13 5 0 9 -18 10 -40 0 -22 -4 -37 -9 -33 -5 3 -4 -4 2 -16 9 -16 9 -26
0 -42 -6 -12 -7 -19 -2 -16 5 4 10 -7 10 -23 0 -16 -5 -27 -10 -23 -5 3 -4 -4
2 -15 14 -27 14 -45 -1 -36 -7 5 -8 3 -3 -6 12 -19 13 -130 2 -123 -6 4 -7 1
-2 -8 13 -20 13 -49 1 -49 -7 0 -7 -3 -1 -8 15 -10 17 -30 5 -51 -7 -13 -6
-22 3 -29 17 -14 49 -18 65 -9 6 5 12 5 12 0 0 -10 52 -9 68 1 7 4 12 3 12 -3
0 -7 8 -7 25 1 27 12 31 23 15 33 -6 4 -7 12 -3 18 11 15 10 38 -1 56 -6 9 -5
12 2 7 11 -7 11 31 -1 51 -3 5 -4 13 0 17 11 11 10 140 -2 155 -8 12 -6 13 8
8 13 -5 16 -3 10 6 -13 20 -12 37 2 37 7 0 21 3 31 7 13 5 15 3 9 -8 -8 -12
-6 -12 8 0 14 11 17 11 17 0 0 -11 3 -11 11 1 8 12 12 12 16 2 4 -10 8 -10 19
-1 11 9 14 8 14 -2 0 -11 2 -11 10 1 8 12 11 13 19 1 6 -9 11 -10 15 -2 5 8
14 6 31 -6 12 -10 21 -21 19 -25 -3 -4 6 -17 18 -29 13 -12 17 -19 11 -15 -9
5 -11 2 -7 -8 3 -9 10 -16 15 -16 5 0 9 -7 9 -15 0 -9 7 -18 16 -22 8 -3 13
-12 10 -20 -3 -7 1 -16 9 -19 8 -4 12 -10 9 -15 -3 -5 -1 -9 5 -9 10 0 27 -42
20 -48 -2 -2 7 -10 21 -17 14 -8 19 -14 11 -15 -11 0 -8 -6 7 -20 21 -19 26
-33 23 -53 -1 -5 3 -6 9 -2 9 6 14 -8 11 -28 -1 -5 3 -6 9 -2 5 3 10 0 10 -7
0 -10 2 -10 9 1 6 9 10 10 12 2 3 -9 12 -9 32 -2 15 6 27 7 27 2 0 -11 19 -9
38 2 7 5 12 3 12 -3 0 -8 6 -7 21 1 12 6 24 7 28 2 5 -8 16 -9 37 -4 3 0 -2 8
-10 17 -9 8 -14 20 -11 25 4 5 1 9 -4 9 -6 0 -11 7 -11 15 0 8 -4 15 -10 15
-5 0 -10 6 -10 14 0 8 -3 16 -7 18 -15 6 -53 85 -45 93 4 5 2 5 -5 1 -7 -4
-18 7 -29 29 -9 19 -20 35 -25 35 -5 0 -9 9 -9 20 0 11 -4 20 -10 20 -5 0 -10
6 -10 14 0 8 -7 16 -15 20 -8 3 -15 15 -15 26 0 11 -4 20 -9 20 -5 0 -7 9 -4
20 3 11 9 17 15 14 5 -3 20 2 34 11 13 9 29 13 34 10 6 -3 10 -1 10 5 0 6 5 8
10 5 6 -3 10 -1 10 5 0 6 5 8 12 4 6 -4 8 -3 4 4 -3 6 2 15 11 21 10 6 14 11
9 11 -5 0 1 8 12 19 12 10 19 21 15 25 -3 3 -1 6 5 6 7 0 11 3 11 8 -1 4 0 9
1 12 4 12 10 49 15 93 2 26 7 52 10 57 4 6 2 10 -2 10 -5 0 -8 18 -7 40 1 24
-3 40 -10 40 -6 0 -4 5 4 10 12 8 12 10 1 10 -8 0 -12 3 -8 6 3 4 0 19 -9 35
-8 16 -11 29 -8 29 4 0 -3 8 -14 19 -12 10 -22 23 -22 29 0 6 -9 14 -20 17
-11 3 -20 11 -20 16 0 6 -4 8 -9 5 -5 -4 -11 -2 -13 4 -2 6 -14 12 -27 15 -12
2 -29 9 -37 16 -11 9 -14 9 -14 0 0 -8 -5 -7 -15 3 -9 8 -22 13 -30 9 -9 -3
-23 1 -32 8 -12 10 -15 10 -9 2 8 -15 0 -15 -29 -4 -11 5 -28 4 -37 -1 -12 -6
-18 -5 -18 2 0 6 -5 8 -12 4 -16 -10 -78 -12 -78 -3 0 9 -42 5 -58 -5 -7 -4
-12 -2 -12 4 0 6 -5 8 -12 4 -16 -10 -78 -12 -78 -2 0 7 -34 3 -50 -7 -6 -3
-10 -1 -10 6 0 8 -4 8 -15 -1 -12 -10 -15 -10 -15 0 0 10 -3 10 -14 1 -10 -9
-15 -9 -18 -1 -2 6 -7 8 -11 4z m172 -166 c8 -7 11 -8 8 -2 -4 7 10 11 42 10
27 0 47 -5 44 -10 -4 -5 0 -6 8 0 19 11 139 12 139 0 0 -4 7 -3 15 4 12 10 15
10 15 0 0 -7 7 -10 15 -6 8 3 15 1 15 -5 0 -6 5 -7 10 -4 6 3 10 2 10 -4 0 -5
9 -13 20 -16 11 -4 20 -15 20 -26 0 -13 4 -18 12 -13 8 5 9 2 5 -9 -4 -10 -1
-17 6 -17 8 0 8 -3 -2 -9 -8 -5 -9 -11 -3 -15 16 -9 6 -118 -12 -131 -9 -7
-13 -15 -9 -19 9 -9 -28 -35 -49 -36 -10 0 -18 -4 -18 -9 0 -5 -18 -8 -39 -7
-22 1 -38 0 -36 -3 5 -8 -183 -6 -191 2 -4 3 -14 3 -23 -2 -40 -19 -45 -9 -45
76 -1 47 -4 79 -10 76 -5 -4 -6 0 0 8 13 21 13 100 0 92 -6 -4 -5 0 2 9 7 9
11 27 8 41 -4 23 3 33 25 36 3 1 11 -5 18 -11z"/>
</g>
</svg>
